<?xml version="1.0" standalone="no"?>
<!DOCTYPE svg PUBLIC "-//W3C//DTD SVG 20010904//EN"
 "http://www.w3.org/TR/2001/REC-SVG-20010904/DTD/svg10.dtd">
<svg version="1.0" xmlns="http://www.w3.org/2000/svg"
 width="472.000000pt" height="88.000000pt" viewBox="0 0 472.000000 88.000000"
 preserveAspectRatio="xMidYMid meet">

<g transform="translate(0.000000,88.000000) scale(0.100000,-0.100000)"
fill="#000000" stroke="none">
<path d="M3728 810 c-21 -13 -67 -76 -47 -66 7 4 6 1 -3 -7 -10 -8 -15 -17
-11 -20 3 -4 2 -7 -4 -7 -12 0 -64 -113 -94 -206 -12 -38 -26 -73 -31 -79 -5
-5 -27 -36 -49 -67 -22 -32 -45 -58 -51 -58 -14 0 -1 85 19 124 13 25 13 30 0
43 -11 11 -20 13 -33 5 -16 -9 -23 -6 -41 16 l-21 27 -29 -21 c-63 -46 -95
-171 -50 -198 15 -9 23 -5 50 24 18 19 40 46 49 60 16 25 16 25 7 -15 -12 -46
1 -92 26 -102 21 -7 59 29 97 92 l30 50 -6 -44 c-5 -31 -2 -50 9 -67 22 -34
32 -30 57 22 12 26 40 65 62 88 37 38 40 39 44 19 5 -32 -25 -88 -53 -101 -28
-13 -33 -37 -9 -46 15 -6 64 20 64 34 0 4 26 33 58 65 31 32 47 53 35 46 -12
-6 -25 -16 -28 -21 -10 -17 -25 -11 -25 9 0 82 -69 59 -145 -49 l-17 -25 7 40
c11 67 25 115 34 115 19 0 98 88 129 142 40 70 48 152 17 174 -22 16 -25 17
-47 4z m46 -36 c10 -25 -4 -85 -29 -130 -25 -43 -104 -129 -111 -121 -8 7 75
214 97 241 24 30 34 32 43 10z m-391 -321 c4 -20 -4 -38 -31 -75 -20 -26 -40
-48 -45 -48 -12 0 2 57 26 107 24 49 42 55 50 16z"/>
<path d="M2042 725 c-39 -33 -129 -173 -150 -235 -13 -35 -31 -60 -71 -94 -61
-51 -76 -57 -67 -23 3 12 6 27 6 34 0 6 12 25 26 42 14 17 24 39 22 48 -6 35
-42 19 -88 -39 -25 -31 -46 -51 -48 -45 -3 16 24 84 38 92 14 9 2 25 -19 25
-11 0 -22 -14 -30 -37 -15 -45 -83 -153 -111 -178 -20 -18 -20 -17 -20 16 0
19 8 55 17 82 13 37 14 50 5 59 -10 10 -17 10 -34 -1 -17 -11 -22 -11 -29 1
-5 7 -9 16 -9 19 0 16 -33 17 -56 2 -48 -31 -87 -141 -64 -183 18 -34 50 -21
92 38 l37 54 -6 -54 c-4 -45 -2 -56 15 -71 16 -15 25 -16 40 -8 20 11 82 96
83 115 0 6 4 1 9 -11 14 -34 32 -28 63 21 35 55 65 84 42 40 -20 -39 -19 -87
3 -107 10 -10 22 -17 27 -17 4 0 27 21 51 47 l43 46 -2 -63 c-2 -61 -1 -63 37
-96 49 -42 80 -43 128 -4 37 30 93 129 86 150 -2 7 -24 -15 -49 -47 -75 -97
-149 -120 -157 -49 -4 33 30 148 68 234 32 68 32 83 1 25 -11 -21 -20 -34 -21
-29 0 11 49 96 56 96 3 0 2 -6 -1 -12 -3 -7 2 -2 12 12 81 115 148 119 88 6
-30 -57 -30 -55 -5 -49 55 14 77 98 39 147 -26 33 -59 33 -97 1z m-564 -276
c2 -17 -10 -42 -35 -74 -34 -44 -38 -47 -41 -27 -5 30 44 135 60 130 7 -3 14
-16 16 -29z"/>
<path d="M3155 718 c-27 -16 -45 -40 -40 -55 2 -7 0 -13 -6 -13 -6 0 -8 -4 -5
-9 3 -5 -5 -33 -18 -62 -13 -30 -32 -96 -42 -147 -16 -83 -21 -95 -51 -118
-35 -27 -43 -61 -17 -71 9 -3 26 5 42 20 35 32 75 51 140 67 101 24 72 48 -32
27 -60 -12 -66 -12 -61 2 3 8 19 63 35 120 31 110 76 213 98 219 19 6 15 -48
-8 -91 -25 -46 -25 -49 1 -45 30 4 60 48 61 87 2 52 -55 93 -97 69z"/>
<path d="M1012 698 c-15 -15 -16 -45 -1 -50 16 -5 -7 -132 -64 -342 -8 -29 -7
-40 3 -46 22 -14 38 -1 71 58 36 65 150 234 155 230 1 -2 -4 -28 -12 -58 -22
-82 -30 -216 -14 -235 7 -8 18 -15 24 -15 6 0 44 65 84 144 66 131 143 250
185 285 20 16 22 41 4 41 -25 0 -125 -147 -202 -300 -27 -52 -50 -90 -52 -85
-1 6 6 62 18 125 25 142 27 172 12 177 -11 4 -121 -137 -172 -220 -13 -21 -25
-37 -26 -35 -2 2 3 32 10 68 28 136 38 227 26 249 -13 24 -31 27 -49 9z"/>
<path d="M2656 665 c-22 -24 -96 -183 -96 -207 0 -5 -3 -8 -7 -6 -5 2 -21 10
-37 18 -27 14 -30 13 -55 -15 -19 -22 -36 -30 -59 -30 -32 0 -32 0 -26 41 7
47 -6 80 -36 89 -25 8 -57 -9 -65 -34 -3 -11 -21 -29 -39 -40 -38 -24 -69 -85
-64 -126 2 -16 15 -37 31 -49 27 -20 28 -20 60 -3 17 10 47 38 66 62 24 30 44
45 65 48 39 6 42 3 28 -28 -15 -34 -15 -88 0 -103 18 -18 36 -15 74 14 l34 26
0 -30 c0 -16 9 -40 19 -53 24 -30 42 -21 88 42 18 24 51 65 73 91 22 25 40 49
40 52 0 21 -27 -5 -86 -84 -41 -54 -72 -86 -77 -81 -5 5 -6 36 -2 70 5 47 15
73 41 109 82 116 115 166 121 190 14 57 -49 83 -91 37z m64 -47 c-10 -32 -100
-172 -107 -165 -7 8 57 164 79 192 25 32 40 18 28 -27z m-372 -101 c2 -8 -2
-34 -8 -57 -9 -34 -15 -41 -33 -38 -30 4 -33 44 -7 86 21 34 43 38 48 9z m191
-86 c15 -28 -2 -75 -41 -109 -18 -17 -37 -28 -41 -25 -19 12 36 153 60 153 7
0 17 -8 22 -19z m-241 -21 c21 0 13 -27 -17 -59 -33 -35 -71 -42 -71 -12 0 20
23 81 36 94 4 4 15 0 24 -8 9 -8 22 -15 28 -15z"/>
<path d="M2804 495 c-31 -31 -57 -91 -49 -115 3 -10 1 -29 -6 -43 -22 -49 35
-96 80 -65 27 19 134 158 122 158 -6 0 -29 -24 -51 -54 -40 -53 -78 -86 -100
-86 -11 0 -14 58 -4 84 3 9 12 16 19 16 25 0 85 66 85 93 0 44 -57 51 -96 12z
m66 -10 c0 -25 -46 -83 -56 -72 -8 8 40 97 52 97 2 0 4 -11 4 -25z"/>
</g>
</svg>
