<svg version="1.2" xmlns="http://www.w3.org/2000/svg" viewBox="0 0 472 88" width="472" height="88">
	<title>template</title>
	<style>
		.s0 { fill: #000000 } 
	</style>
	<path id="Hello World!" class="s0" aria-label="Hello World!"  d="m111.3 70.5v-0.3q0.6-0.5 1.2-1 0.7-0.5 1.3-1 1.4-1 2.4-2.1 0.7-0.8 1.3-1.6 0.7-0.8 1.2-1.7 0.6-0.9 1.2-1.7 0.7-0.8 1.5-1.5 0-0.8 0.6-1.8 0.7-1.1 1.5-2.2 0.8-1.1 1.3-2.2 0.7-1 0.7-1.7 0.1-0.1 0.1-0.3 0.2-0.2 0.2-0.4 0.1-0.4 0.5-0.5 0-0.5 0.2-1 0.1-0.3 0.1-0.5 0.1-0.3 0.1-0.5v-0.1q-0.7-0.3-1.4-0.3-1.4 0-3.4 0.5-1.9 0.6-4 1.2-2 0.7-3.8 1.3-0.3-0.1-0.3-0.5-0.1-0.4-0.1-0.7 0-1.1 0.8-2.1 0.2 0 0.2-0.1 2-0.5 4-0.8 2-0.3 4-0.3 1.2 0 2.5-0.4 1.1-0.4 2.5-0.4 0.4-0.3 1.1-1.7 0.6-1.3 1.2-2.9 0.7-1.6 1.1-2.6 0.4-1.1 1-2.8 0.6-1.8 1.2-3.3 0.5-1.6 0.8-2.2-1.1-0.4-1.1-1.4 0-0.5 0.5-1.3 0.5-1 1.1-1.9 0.6-0.9 0.9-1.4-0.5-0.3-0.6-0.6 0-0.2-0.1-0.3 0-0.1-0.7-0.1h-0.9q-0.3 0-0.6 0-0.2 0-0.4 0-0.3 0-0.6 0-0.2 0-0.3 0-1.3-0.4-2.5-0.4-1.1-0.1-2.5-0.1h-1.3l0.1-0.2-0.5-0.1v0.2q-0.3 0-0.3 0.1 0 0.1 0.3 0.1 0.2 0 0.2 0 0.4 0 0.3 0.4-0.2 0-1-0.1-0.7-0.2-0.9-0.2-0.4 0.1-0.4 0.3h-1.1l-0.2-0.2q-0.1 0.1-0.2 0.3-0.1 0.2-0.3 0.2-0.1 0-0.3-0.1-0.2-0.1-0.4-0.1-0.2 0-0.2 0.2 0 0.2 0 0.2l-1.1 0.1q0.1-0.1 0.1-0.1 0.1-0.1 0.2-0.1l0.2-0.2-0.1-0.1-0.8 0.6-0.2-0.2 0.3-0.1-3 0.1q-0.2-0.1-0.3-0.1-0.1 0-0.2 0.1-0.2 0.1-0.2 0.2 0 0.1 0.2 0.1l0.2-0.1q0.1-0.1 0.3-0.1 0.1 0 0.2 0.1 0.3 0 0.3 0v-0.2l0.6 0.2-0.9 0.2v0.2h0.2l0.8-0.2 0.1-0.2 0.3 0.3-1.6 0.2-0.5 0.4-0.5-0.4-1.7 0.4v0.1l0.1 0.1v-0.1l1.5-0.2 0.1 0.1-0.8 0.4h-0.1 0.4l-4.4 1.6h-0.2l-1.3 0.7-0.2-0.1q-0.4 0.3-0.8 0.6-0.4 0.2-0.8 0.5h-0.6l-1.4 0.9 0.2 0.1-0.8 0.6 0.1-0.3q0 0-0.4 0.5-0.2 0.4-0.6 0.9-0.3 0.4-0.4 0.5l0.1 0.1 0.3-0.5q-0.5 0.8-0.5 1.6 0 0.5 0.7 1.1 0.7 0.6 1.4 1.3 0.7 0.5 0.7 0.9 0 0-0.1 0-0.7 0-1.5-0.5l-1.4-0.8q-1.1-0.7-1.8-1.1-0.6-0.4-1.1-0.9-0.4-0.6-0.9-1.9 0.2 0 0.2 0.3 0.2 0 0.2-0.4 0-0.3-0.2-0.3l-0.1 0.3 0.1-1h0.2q0.1 0 0.2-0.3 0.1-0.3 0.2-0.4l-0.1 0.1q-0.1 0.1-0.1 0.1h-0.1l0.6-1.2h0.2l1.7-1.8h0.1v-0.1h0.1q0.4 0 0.5-0.3 0.1 0 0.2 0h0.3q0.2 0 0.3-0.1 0 0 0 0v-0.5l-0.1-0.1q0.1 0.1 0.2 0.1l0.1 0.1q0.1-0.1 0.4-0.3 0.4-0.1 0.4-0.3 0 0-0.1 0 0 0 0-0.1h0.2q0 0.1 0.2 0.1 0.3 0 0.9-0.5 0.7-0.4 1-0.4 0.2 0 0.1 0.1l0.5-0.2v-0.1h0.3l1.2-0.6q-0.2 0-0.3-0.1-0.1 0-0.2-0.1l0.5-0.1v-0.1q0.4 0 0.7-0.1 0.3 0 0.7-0.1l1.3-0.2 2.7-0.6q0.7-0.2 1.3-0.2 0.7 0 1.3 0 0.6-0.2 0.7-0.4 1 0.2 1.9 0.2l-1.2-0.2 1.8-0.2v0.1l4.2-0.5 0.2 0.1 1.4-0.2q0.3-0.1 0.6-0.1 0.4 0 0.7 0 0.5 0 0.7 0.1v0.1h3.1q0 0 0 0-0.4 0 0.3 0 0.8 0 1.2-0.1 0.3-0.1 0.6-0.1 0.4 0 0.8 0 0.7 0 1.5 0.2 0.8 0.2 1.2 0.9 0.1-0.3 0.2-0.6 0-0.3 0.1-0.6 1.1 0.1 2.3 0.3 1.3 0.2 2.1 0.9 0.9 0.5 0.9 1.8 0 0.5-0.3 1.5-0.3 0.9-0.8 2.1-0.4 1.1-0.8 2-0.4 0.8-1 2-0.5 1.1-1 2-0.4 0.8-0.8 1.2-0.1 0.7-0.8 2-0.5 1.3-1.4 2.9-0.8 1.5-1.7 3-0.7 1.5-1.3 2.6-0.1 0.1-0.1 0.2l0.1 0.1q0.7 0 1.2-0.2 0.5-0.1 1.2 0v-0.1q3.7-1 7.6-1.1 3.8-0.1 7.6-0.1 0.1 0 0.3 0 0.2 0 0.4-0.1 0.2-0.1 0.6-0.9 0.4-0.8 0.8-1.8 0.5-1.1 0.7-1.9 0.4-0.8 0.4-0.8l2-3.9q0.4-0.8 0.8-1.5 0.5-0.8 0.9-1.6 0.4-0.7 0.7-1.5 0.4-0.8 0.8-1.6 0.1-0.2 0.2-0.5 0.1-0.4 0.2-0.7 0-0.6 0.4-1.1h0.1q0.6 0 1.4 0.2 0.8 0.2 1.4 0.7 0.7 0.4 0.7 0.9 0 0.9-0.7 1.7-0.6 0.8-1.4 1.6-0.8 0.8-1.4 1.6-0.9 1.3-1.7 2.8-0.8 1.3-1.5 2.8l-2.8 5.8h0.1q0.1 0 0 0.1 0.2-0.1 0.5-0.1h0.4q0.7 0 1.9 0.3 1.3 0.1 2.6 0.4 1.2 0.3 1.6 0.6 0.1 0 0.1 0.2 0 0.1-0.5 0.2-0.2 0.1-0.4 0.1-0.1 0-0.1 0.1-0.8-0.3-1.6-0.3-0.7-0.1-1.5-0.2-0.3-0.1-0.6-0.1-0.3 0-0.6 0-0.3 0-0.6 0-0.3 0-0.6-0.1-0.2 0.1-0.4 0.1-0.1 0-0.3 0-0.4-0.1-0.7 0.2-0.2 0.1-0.6 1.2-0.4 0.9-0.9 2.1-0.4 1.1-0.6 1.8-0.2 0.7-0.7 1.9-0.4 1.2-0.7 2.3-0.4 1-0.4 1.4h-0.1q-0.3 0.4-0.7 1.7-0.4 1.4-0.6 2.7-0.3 1.3-0.3 2 0 0.5 0.5 0.9 0.5 0.4 0.5 1.1 0 0.5-0.7 1.4-0.6 0.8-1.5 1.4-0.8 0.6-1.4 0.6-0.6 0-0.9-0.9-0.3-0.9-0.4-2.1-0.1-1.3-0.2-2.4-0.1-1.2-0.3-1.6-0.4-0.8-1.4-2.1-1.1-1.4-2.7-2.9-1.4-1.5-3.1-2.9-1.6-1.4-3-2.2-1.4-0.9-2.2-0.9-0.2 0.2-0.3 0.3-0.3 0.2-0.3 0.4-0.4 0.5-0.8 1-0.2 0.6-0.5 1.2-0.2 0.7-0.5 1.3-0.3 0.6-0.5 1.1-2.4 4.2-5.4 7.6-2.9 3.4-7 6.1-0.5 0.3-1.4 1-1 0.7-1.5 0.8zm6.8-46.1q-0.2 0-0.2-0.1h-0.3l-0.2-0.1q0.1 0 0.3-0.1 0.2 0 0.4 0l0.2 0.2h-0.1q0 0.1-0.1 0.1zm-10.1 47q-2.9 0-5.1-1.3-2.2-1.3-3.4-3.6-1.2-2.3-1.2-5.1 0-2.3 0.9-4.2 0.4-1 0.8-1.9 0.4-1.1 0.8-2l-0.2-0.6q0.5-0.5 0.7-1l0.5-1.1q0.2-0.4 0.5-0.8 0.4-0.5 0.8-0.9 0.7-0.7 1.2-1.6l0.4-0.3q0.2-0.4 0.9-1.2 0.8-0.9 1.6-1.7 0.9-0.9 1.6-1.4 0.8-0.7 1.3-0.7l-0.1-0.5 1.2-0.8 0.6 0.3q-1.4 1-2.9 2.9-1.5 1.9-2.9 4.4-1.5 2.5-2.6 5.1-1.2 2.5-1.9 4.9-0.7 2.4-0.7 4.1 0 3.9 1.9 5.9 1.9 2.1 5.5 2.1 0.6 0 1.1 0 0.7-0.1 1.2-0.3l-0.1 0.5q-0.7 0.1-1.2 0.5-0.4 0.3-1.2 0.3zm36-11.5q0.8-1.1 1-2.4 0.1-0.6 0.2-1.2 0.1-0.6 0.3-1.2 0.8-2.6 1.9-4.9 0.5-1.2 1-2.4 0.5-1.2 0.9-2.5l-0.1-0.1-1.3 0.1q-0.3 0.1-0.7 0.1-0.3 0-0.6 0l-0.2-0.1v-0.2h0.3v-0.2h-0.4q-0.8 0.5-2.2 0.7-1.4 0.1-2.8 0.2-1.5 0-2.4 0.2l-0.2-0.3q-0.4 0.3-1.5 0.5-1 0.1-2.3 0.2-1.2 0.1-2.4 0.4-1.2 0.1-1.8 0.5-0.3 0.3-0.5 0.6-0.2 0.3-0.3 0.6 0.4 0.8 1.3 1.2 0.8 0.3 1.7 0.8 1.5 1 2.9 2.1 1.5 1.2 2.8 2.4 1.3 1.3 2.7 2.5 1.3 1.2 2.7 2.4zm-29.4-11h0.2 0.6q1-0.6 2.2-0.8 1-0.1 2.2-0.6l0.1-0.1-1.1-0.1q-0.7 0.3-1.8 0.3-0.9 0.1-1.7 0.3-0.7 0.2-0.7 1zm45 15.6h-1.2q-0.7 0-1.3-0.2-0.9-0.3-1.8-1.9l0.4-0.1-0.4-0.3-0.4-1.4h-0.1q0-0.2 0-0.5v-0.4q0-0.2 0.3-0.8 0.2-0.6 0.5-1.1l-0.6 0.1v-0.3q0.1 0 0.2-0.2 0-0.2 0.2-0.3 0.1 0.1 0.1 0.2l0.1-0.1v-0.3q0-0.2 0-0.4 0.1-0.3 0.2-0.5 0-0.3 0.1-0.4l0.1-0.2h0.1v-0.3l0.3-0.4q0.3-0.3 0.4-0.3v-0.1q-0.1 0.1-0.2 0.1-0.2 0-0.2-0.2 0-0.1 0-0.1v-0.3q0.1-0.1 0.1-0.3 0-0.2-0.1-0.4l0.4-0.4h0.2-0.1 0.1l0.1-0.1 0.2-0.6 0.3 0.5 0.1-1q0.1-0.3 0.1-0.6 0.1-0.3 0.2-0.5l0.6-0.1v-0.5h-0.2v-0.2l0.3-0.3h0.1v-0.3l0.5-0.4v-0.2q0.4-0.2 0.7-0.8 0.1-0.4 0.8-0.5h-0.4l0.1-0.1-0.3 0.2v-0.4h0.2v-0.2h0.1l0.1-0.2v-0.3q0.3-0.2 0.7-0.5 0.4-0.4 0.4-0.8l0.2-0.1v-0.3l0.2 0.1 0.8-0.6v-0.3l0.4-0.3 0.2-0.3q0-0.2 0.2-0.2 0.1 0 0.2 0.1 0.3 0.1 0.4 0.2h0.3q0.9 0 1.9 0.6 0.9 0.7 1.5 1.6 0.6 0.9 0.6 1.8 0 0.3 0.2 0.6 0 0.1 0 0.3 0.1 0.2 0.1 0.4v0.2q0 0.3-0.1 0.3-0.9 2.3-3 4.4-2 2.1-4.1 3.3-0.5 0.2-1.1 0.5-0.5 0.2-1.1 0.2-0.2 0-0.2-0.1l-0.4-0.1q0.1 0 0.5-0.3 0.1 0 0.2-0.1 0.1 0 0.2-0.1l0.4-0.1q0.1 0 0.2-0.1l-0.1-0.1q0-0.2 0.3-0.2 0.3-0.2 0.5-0.3l0.6-0.1q0.4-0.2 0.6-0.2 0.3-0.1 0.3-0.4 0.2-0.1 0.5-0.7 0.4-0.7 0.6-0.9l0.5-0.1 0.6-0.8-0.1-0.3 0.4-0.2v-0.2h0.2q0.6-0.7 0.9-1.2 0.4-0.6 0.7-1.5 0-0.1 0.2-0.1v-0.1q0.3-0.6 0.3-1.3 0-1.3-1.3-1.3-0.1 0-0.3-0.1-0.2 0-0.2 0.1h0.3l-0.3 0.2q-0.3 0.2-0.6 0.4-0.2 0.2-0.2 0.6h-0.2q0.1 0 0.1 0.2-0.4 0-0.5 0.3l0.3 0.1q-0.2 0.2-0.3 0.3-0.2 0-0.4 0.1-0.1 0.1-0.3 0.2-0.2 0.1-0.3 0.2-0.6 0.4-0.6 0.8 0 0.1 0 0.2 0.1 0 0.1 0.1 0.2 0 0.3 0.1h-0.5q0 0 0.1 0 0-0.1 0.1-0.1-0.2 0-0.4 0.1-0.1 0 0 0.1l0.1 0.1q0 0-0.1 0 0 0 0 0 0 0.1 0 0.1h-0.1q-0.3 0.3-0.5 0.6-0.2 0.3-0.3 0.6-0.2 0.5-0.6 1l0.4 0.3h-0.4l-0.2 0.2v0.3l-0.4 0.3h0.2l-0.6 1-0.2 0.1v0.4l-0.6 0.7v0.2h-0.1v0.4q-0.4 0.4-0.5 1 0 0.6-0.4 1.2h0.3l-0.5 0.3v0.1q0 0.1 0 0.2 0 0.2 0 0.4 0 0.2 0.1 0.4 0.1 0.1 0.1 0.3 0 0.2 0 0.4 0 0.5 0.4 1.2 0.4 0.7 0.8 0.7 1 0 2.1-0.6 1-0.6 2.1-0.7l1.2-0.9q0.9-0.8 1.6-1.8 0.8-1 1.7-1.8l-0.1-0.1q0.2-0.2 0.5-0.7 0.4-0.4 0.4-0.7 0.1-0.1 0.1-0.2 0-0.2 0-0.2 0.2-0.3 0.4-0.3 0.2 0 0.2 0.3 0 0.2 0 0.2 0 0.6-0.6 1.7-0.4 1-1 1.2v0.2q-0.3 0.3-0.6 0.8-0.4 0.5-1.1 1.4-0.7 0.9-1.2 0.9l-0.8 0.5v0.3q0 0.2-0.3 0.4-0.3 0.2-0.6 0.2-0.2 0.3-0.6 0.4-0.1 0.1-0.5 0.3-0.1 0.2-0.6 0.4-0.4 0.1-0.5 0.2-0.3 0.2-0.7 0.3-0.4 0-0.7 0zm13 2.3q-0.3 0-0.6-0.2-0.2-0.2-0.5-0.3-1.5-0.8-2-2.3-0.5-1.5-0.5-3 0-2.2 0.5-4.3 0.5-2.2 1.2-4.3 1.2-4.3 3.2-8.3 1.9-4.1 4.4-7.8 0.4-0.7 0.8-1.2 0.5-0.6 0.9-1.2 0.5-0.5 0.9-1.1 0.4-0.6 0.8-1.1l0.8-1.1q0.2-0.2 0.4-0.4 0.1-0.3 0.3-0.5 0.1-0.4 0.1-0.6 0-0.1 0-0.5 0-0.5 0.7-1.3 0.3-0.3 0.6-0.5 0.3-0.3 0.4-0.6 0.4-0.4 0.7-0.8 0.3-0.5 0.6-0.9 0.3-0.5 0.6-0.9 0.3-0.5 0.6-0.9 0.4-0.4 0.8-0.9 0.4-0.5 0.8-0.9 0.4-0.5 0.7-0.9 0.4-0.5 0.7-1.1 1 0.3 2 0.7 1 0.4 1.7 1 0.7 0.6 0.7 1.7 0 0.4-0.3 0.9-1.2 1.2-2.6 2.4-0.7 0.5-1.3 1.2-0.7 0.6-1.2 1.2-1.8 1.9-3.7 4.7-1.9 2.7-3.5 5.5-1.7 2.9-2.7 5.3l-0.3 0.4-0.5 0.3v-0.3l0.1-0.4q-0.3 0.5-0.6 1.1-0.3 0.6-0.6 1.2l-1.2 2.4q-0.5 1.1-1 2.2-0.4 1-0.7 2.2-0.1 0.1-0.1 0.4 0 0.3 0 0.4 0 0.4-0.4 0.4-0.3 0-0.3-0.3 0-0.8 0.5-1.7-0.1 0-0.1 0.1-0.1 0.1-0.2 0.2-0.1-0.3-0.1-0.3v-0.1q0-0.7 0.2-1.5-0.3 0.3-0.3 0.6-0.1 0.3-0.3 0.8-0.1 0.4-0.4 0.9-0.2 0.4-0.3 0.8-0.1 0.4-0.2 0.8l-0.4 1.9q0 0.5-0.1 1-0.1 0.4-0.3 0.9-0.2 1.5-0.2 2.9 0 0.1 0 0.3 0 0.1 0 0.3 0.1 0.2 0.1 0.4 0 0.1 0 0.4l0.2 0.6q0.1 0.1 0.1 0.3 0 0.1 0 0.2 0.1-0.2 0.5-0.3v0.3q0.2 0.2 0.4 0.4 0.1 0.2 0.4 0.2 0.8 0 1.7-0.8 0.8-0.7 1.6-1.7 0.7-1 1-1.6 0.3-0.3 0.5-0.6 0.2-0.2 0.5-0.5 0.2-0.2 0.4-0.5 0.2-0.3 0.5-0.6 1.2-1.8 2.2-3.5 0.1-0.3 0.2-0.4 0.1-0.2 0.3-0.3l0.4-0.5q0.4-0.3 0.5-0.3 0.1 0 0.1 0.2 0 0.1-0.2 0.7-0.3 0.7-0.6 1l0.1 0.1q-0.6 0.9-1.2 1.8-0.6 0.9-1 1.9-0.5 0.9-1.1 1.9-0.5 0.9-1.1 1.8-0.6 0.8-1.1 1.9-0.6 0.9-1.3 1.7-0.6 0.8-1.6 0.9-0.2 0.1-0.3 0.1-0.2 0-0.3 0h-0.6q-0.2 0.2-0.5 0.2zm4.6-22.8l-0.3 0.4q0.2-0.2 0.3-0.4 0.2-0.3 0.3-0.6 0.3-0.4 0.5-0.8 0.2-0.4 0.5-0.8l0.1-0.2q-0.2 0-0.5 0.5-0.1 0.3-0.2 0.6-0.1 0.2-0.2 0.4zm-2.1 3.9q-0.7 1-0.7 2.1 0.3-1.1 1-2.1l0.6-0.9q0.2-0.4 0.3-1.1v-0.1q-0.6 1.1-1.2 2.1zm-0.3 3.3q0.1-0.2 0.1-0.2 0.3-0.7 0.5-1.2 0.2-0.6 0.2-1.2 0 0.5-0.4 1.4-0.4 0.7-0.4 1.2zm9.8 15.6q-0.3 0-0.6-0.2-0.3-0.1-0.6-0.2-1.4-0.9-1.9-2.3-0.5-1.5-0.5-3 0-2.2 0.5-4.4 0.5-2.1 1.2-4.3 1.2-4.3 3.1-8.3 2-4 4.5-7.8 0.4-0.6 0.8-1.2 0.4-0.6 0.9-1.1 0.5-0.6 0.9-1.2 0.4-0.6 0.8-1.1l0.8-1q0.2-0.3 0.3-0.5 0.2-0.3 0.4-0.5 0.1-0.3 0.1-0.5-0.1-0.2-0.1-0.5 0-0.6 0.8-1.3 0.3-0.4 0.6-0.6 0.2-0.3 0.4-0.5 0.4-0.4 0.6-0.9 0.4-0.4 0.7-0.9 0.3-0.4 0.5-0.9 0.4-0.5 0.7-0.8 0.4-0.5 0.8-1 0.4-0.5 0.8-0.9 0.4-0.4 0.7-0.9 0.4-0.4 0.7-1 1 0.2 2 0.6 1 0.4 1.7 1 0.7 0.7 0.7 1.8 0 0.4-0.3 0.8-1.2 1.3-2.6 2.4-0.7 0.6-1.3 1.2-0.7 0.6-1.2 1.3-1.8 1.9-3.7 4.6-1.9 2.7-3.5 5.6-1.7 2.8-2.8 5.2l-0.2 0.5-0.5 0.2v-0.3l0.1-0.4q-0.3 0.6-0.6 1.1-0.3 0.6-0.6 1.2l-1.2 2.5q-0.5 1-1 2.1-0.5 1.1-0.7 2.2-0.1 0.2-0.1 0.4 0 0.3-0.1 0.5 0 0.3-0.4 0.3-0.2 0-0.2-0.2 0-0.9 0.5-1.8-0.1 0.1-0.1 0.2-0.1 0-0.2 0.1-0.1-0.2-0.1-0.3 0-0.8 0.2-1.6-0.3 0.3-0.3 0.6-0.2 0.4-0.3 0.8-0.1 0.4-0.4 0.9-0.2 0.4-0.3 0.9-0.1 0.4-0.2 0.8l-0.4 1.8q0 0.5-0.2 1-0.1 0.5-0.2 0.9-0.3 1.6-0.3 2.9 0 0.1 0 0.3 0 0.2 0.1 0.4 0 0.1 0 0.3 0 0.2 0.1 0.4l0.2 0.6q0 0.1 0 0.3 0 0.2 0.1 0.3 0.1-0.3 0.5-0.3v0.2q0.2 0.3 0.3 0.4 0.2 0.2 0.5 0.2 0.8 0 1.7-0.7 0.8-0.8 1.5-1.7 0.8-1 1.1-1.6 0.3-0.3 0.5-0.6 0.2-0.3 0.4-0.5 0.3-0.3 0.5-0.5 0.2-0.3 0.5-0.6 1.2-1.8 2.2-3.6 0.1-0.2 0.2-0.4 0.1-0.2 0.2-0.3l0.5-0.4q0.3-0.4 0.4-0.4 0.2 0 0.2 0.2 0 0.1-0.3 0.8-0.3 0.7-0.5 1h0.1q-0.6 0.9-1.2 1.8-0.6 1-1 1.9-0.5 1-1.1 1.9-0.5 0.9-1.1 1.8-0.6 0.9-1.2 1.9-0.5 1-1.2 1.8-0.6 0.7-1.7 0.9-0.1 0-0.2 0-0.2 0-0.3 0h-0.6q-0.2 0.2-0.5 0.2zm4.5-22.8l-0.2 0.5q0.2-0.3 0.3-0.5 0.2-0.3 0.3-0.6 0.3-0.4 0.5-0.8 0.2-0.4 0.5-0.8l0.1-0.2q-0.2 0-0.5 0.5-0.1 0.3-0.2 0.6-0.1 0.2-0.2 0.5zm-2.1 3.8q-0.7 1-0.7 2.1 0.3-1.1 0.9-2l0.7-1q0.2-0.4 0.3-1.1h-0.1q-0.5 1.1-1.1 2zm-0.3 3.3q0.1-0.2 0.1-0.2 0.3-0.6 0.4-1.2 0.3-0.6 0.3-1.1 0 0.5-0.4 1.3-0.4 0.8-0.4 1.2zm11.1 16.5q-0.6 0-1-0.3-0.4-0.4-0.8-0.8-0.8-1-1.3-1.7-0.5-0.7-0.5-2v-1.8q0-0.5 0.3-1.5 0.3-1.1 0.7-2.1 0.4-1.1 0.8-1.4 0.5-1.7 1.2-3.3 0.6-1.6 1.7-2.9-0.5-1.3-0.7-2.8-0.2-1.4-0.2-2.9 0-0.5 0-0.8 0.1-0.4 0.1-0.9l0.2-0.2 0.1-0.1v-0.2q-0.1-0.1-0.1-0.2 0-0.2 0.2-0.7 0.1-0.5 0.3-1 0.1-0.5 0.1-0.6 0-0.1 0.3-0.2l0.2-0.1q0.1 0 0.3-0.2l0.2-0.1q0.5-0.7 1.5-0.9 1-0.3 1.8-0.3 1.7 0 2.5 1.2 0.9 1.1 1.3 2.6 0.4-0.3 0.8-0.3 0.2 0 0.3 0.1 0.9 0.2 2.1 1 1.1 0.7 1.1 1.6v0.1q0 0.3-0.5 0.8-0.6 0.5-1.4 1.1-0.7 0.5-1.5 0.9-0.7 0.5-0.9 0.7-0.4 0.2-0.8 0.4-0.3 0-0.4 0.2-0.2 0.1-0.4 0.2-0.3 0.3-0.6 0.5-0.2 0.2-0.5 0.5l-0.5 0.5q-0.2 0.2-0.3 0.4-0.1 0.1-0.3 0.2-0.1 0.1-0.4 0.3-0.2 0.1-0.5 0.4-0.7 0.4-0.8 0.8 0 0.1-0.2 0.5-0.1 0.4-0.1 0.6 0 0.6 0.2 1.5 0.1 0.9 0.5 1.7 0.2 0.5 0 1-0.2 0.5-0.6 0.2-0.5-0.5-0.8-1.2-0.4-0.7-0.4-1.1-0.1-0.1 0-0.2 0.1 0 0-0.1l-0.1-0.1q-0.1-0.1-0.1-0.2 0 0-0.1-0.1-0.4 0.4-0.9 1.5-0.5 1-0.8 1.6l-0.3 0.8q-0.3 0.6-0.4 0.6-0.2 0-0.2-0.3 0-0.4 0.1-0.7l0.4-1q-0.3 0.5-0.5 1.1-0.2 0.5-0.2 0.6v0.1 0.1q0 0.1 0.1 0.1v0.3q-0.1 0-0.1 0.1-0.1 0.5-0.2 1.1-0.2 0.6-0.4 1.2-0.4 1-0.4 2.3 0 1 0.4 1.6 0.3 0.7 1.3 0.7 0.5 0 0.9-0.1 0.4-0.2 1.3-0.8 0.9-0.7 1.8-1.6 0.9-0.9 1.6-1.7 0.6-0.8 0.6-1.2 0.2-0.3 0.5-0.6 0.3-0.3 0.2-0.6 0.7-1.1 1.2-2.7 0.6-1.7 0.9-3.4 0.4-1.7 0.5-3 0.2-0.5 0.2-0.6 0.1-0.3 0.2-0.3v-0.1q0.2-0.1 0.2-0.3 0-0.1 0-0.3 0-0.2-0.1-0.3-0.1-0.4-0.1-0.7 0-0.2 0.2-0.6 0.1-0.4 0.5-0.4 0.4 0 0.6 0.6 0.2 0.7 0.3 1.4 0.2 0.7 0.2 1.1 0 1.3-0.3 2.9-0.3 1.6-0.7 3-0.4 1-0.9 1.8-0.5 0.8-1.1 1.8l-0.6 0.9-0.2 0.4q-0.1 0-0.1 0.2 0 0.3-0.1 0.3-0.1 0-0.2 0.1 0 0 0 0.1-0.3 0.5-0.7 0.8-0.2 0.2-0.4 0.5-0.2 0.1-0.3 0.4-0.7 0.9-1.6 1.9-0.9 1.1-2.1 1.8-1.1 0.8-2.3 0.8zm2.5-19.3l0.1-0.1 0.1-0.4q0.2-0.8 1.3-1.8 1.1-1 1.7-1.7 0.6-0.5 1.1-1 0.5-0.6 1-1-0.1-0.5-0.5-1.2-0.4-0.7-0.8-1.3-0.4-0.6-0.8-0.6-0.6 0-1.2 0.5l-0.1 0.1q0 0.2-0.2 0.2l-0.3 0.1q0 0.1 0 0.1v0.1q-0.3 0.5-0.6 1.1-0.1 0.2-0.2 0.4-0.1 0.2-0.2 0.3-0.2 1-0.5 2-0.1 1.1-0.1 2.1 0 0.5 0 1.1 0.1 0.5 0.2 1zm43.9 16.6q-1.2 0-2.2-0.8-0.9-0.9-1.4-2.1-0.5-1.3-0.5-2.5 0-0.8 0.4-2.2 0.5-1.4 1.1-2.9 0.5-1.5 0.9-2.6l-0.3-0.3q0.7-0.7 1-1.4l0.5-1.6h0.1q0.2 0 0.2 0 0.1-0.1 0.2-0.1 0.2 0 0 0.1l1-0.6q0.1-0.3 0.1-0.4 0-0.1-0.1-0.5-0.2-0.1-0.2-0.4 0-0.5 0.5-1.4 0.7-1 1-1.5l0.1-1.3q0.1-0.2 0.6-1 0.5-0.9 1-1.8 0.5-0.9 0.7-1.3l-0.1-0.3 0.1-0.6q0.1-0.1 0.5-0.5 0.4-0.5 0.4-0.6 0-0.2-0.1-0.3 0-0.2 0-0.3 0-0.1 0-0.1l0.1-0.1q0.1-0.2 0.6-0.9 0.5-0.9 1-1.9 0.5-1.1 1-1.8 0.4-0.8 0.5-0.8 0.2-1.1 0.7-2 0.6-1.1 1.1-2.1 0.4-1 0.4-2.1 0-1.1-0.5-1.5-0.6-0.6-1.7-0.6-1.7 0-4.2 1-2.4 0.8-5.1 2.2-2.7 1.3-5 2.8-2.3 1.3-3.7 2.4l-1.2 0.9q-0.3 0.2-0.6 0.5-0.3 0.2-0.6 0.4l-0.7 0.6q-0.2 0.1-0.4 0.2-0.2 0.2-0.3 0.3h0.3q-0.2 0.3-0.8 0.7-0.6 0.4-1.3 0.8-0.7 0.2-1.1 0.4l0.1 0.3h0.1v0.2l0.6-0.3v0.4h-0.4l-1.3 1.7-1.4 1.7h-0.1v0.4q0.1-0.1 0.3-0.1 0.1 0 0.2 0 0.2 0 0.2 0.2-0.7 0.4-1.1 1.3-0.3 0.8-0.3 1.6 0 0.6 0.3 1.2 0.3 0.5 1.1 0.4v0.1h-0.4q-0.9 0-1.8-0.4-0.8-0.4-0.9-1.3 0.1-0.2 0.3-0.3l0.2-0.1q-0.4-0.5-0.4-0.9 0-0.2 0.2-0.2l0.2 0.5h0.2q-0.2-0.3-0.3-0.7-0.1-0.4-0.1-0.7 0-0.1 0.1-0.2v-0.2l0.4-0.1q0.4 0 0.3-0.3h0.4l-0.3-0.2v-0.2q0-0.2 0.2-0.2v-0.2l-0.2 0.1v0.2l-0.3 0.4h-0.2v-0.3l0.1-0.1 0.8-0.6-0.1-1.3 0.1-0.2 0.4-0.1 0.4 0.4 1.5-1.8v-0.4q-0.2 0.1-0.4 0.1-0.1 0-0.2 0-0.3 0-0.3-0.1l0.2-0.1v-0.2q0.4-0.4 0.9-0.8 0.5-0.4 0.9-0.8 0.5-0.5 1-0.9 0.4-0.4 0.9-0.8 0.3-0.3 0.7-0.7 0.3-0.3 0.7-0.5l0.2-0.1q0 0 0.1-0.2 0 0 0.1 0h0.2v-0.2q0.4-0.7 1.4-0.9 0.1-0.3 0.2-0.4 0-0.3 0.1-0.5 0.2-0.1 1.1-0.6 1-0.5 1.9-1.1 0.9-0.5 0.9-0.8l0.2 0.2 0.7 0.2v-0.4q-0.1-0.1-0.1-0.1h0.1q0.2 0 0.4-0.4 0.3-0.2 0.5-0.3v0.2l1.3-1q0.8-0.6 1.5-0.6 0.2-0.2 0.7-0.5 0.6-0.2 0.6-0.3 0-0.1-0.1-0.1h0.6q0.6-0.6 1.3-0.9 0.8-0.3 1.5-0.5 0.7-0.4 1.4-0.6 0.8-0.2 1.6-0.3l-0.1-0.1q0.4-0.2 0.6-0.2 0.3-0.1 0.7-0.1 1.9 0 3.8 0.8 1.8 0.8 2.7 2.7l0.4 0.8q-0.1 0.1-0.1 0.2 0 0.1 0 0.2v0.5q0 0.4 0 0.8 0 0.4 0.1 0.8 0.1 0.4 0.1 0.8 0 0.4 0 0.8 0 0.5 0 0.6-0.4 0.4-0.7 1.3-0.4 0.8-0.8 0.8l-0.4 1.5q-0.4 0.4-0.5 1.1-0.1 0.6-0.3 1.2-0.1 0.5-0.8 0.5v0.2q0.4 0.1 0.4 0.4v0.1q-0.1 0.1-0.2 0.2-0.1 0-0.2 0.1-0.4 0.3-0.4 0.4 0 0 0.1 0l-0.3 0.2-1.2 2-0.3-0.3q-0.4 1.2-1 2.1l-0.1 0.7-1 1.3-0.1 1.5q-0.8 0.9-1.1 1.5-0.3 0.6-0.5 1.2-0.1 0.6-0.5 1.8-0.5 1.3-1 2.4-0.5 1-1.5 1.9-0.2 0-0.2 0.3l0.5 1.1q-0.7 1-1.2 2.6-0.5 1.5-0.5 2.7 0 1 0.2 2 0.1 0.5 0.1 1 0 0.5 0 1 0.6 0 1.6-0.6 1.1-0.5 2.2-1.3 1.1-0.8 1.9-1.6 0.9-0.8 1-1.4l0.3 0.2q0.1-0.4 0.4-0.8l0.6-0.6q0.1-0.3 0.3-0.4 0.1-0.2 0.4-0.4 0.4-0.4 0.7-0.8l0.6-0.9q0-0.1 0-0.1v-0.1h0.2l0.4-0.5v0.1q0.1-0.1 0.2-0.3 0.2-0.2 0.3-0.4 0.1-0.1 0.4-0.4 0.3-0.3 0.1-0.2v0.1-0.3h0.2q0.1-0.1 0.2-0.3 0.2-0.2 0.3-0.4l0.6-0.7q0.1-0.1 0.2 0 0.2-0.5 0.8-1.1 0.5-0.6 0.8-1 0.5-0.5 1.1-1.4 0.6-0.8 1.2-0.9 0.5-0.4 0.9-0.8 0.5-0.4 0.9-0.8l0.1-0.2q0.2-0.2 0.4-0.3 0.2-0.2 0.4-0.4h0.1q0.3-0.2 0.4-0.4 0.2-0.2 0.4-0.3l-0.1-0.1h0.1 0.1l1.9-4.1v-0.2l-0.5 0.1v-0.2h0.1q0.1-0.1 0.5-0.8 0.4-0.7 0.9-1.6 0.5-1 1-1.7 0.4-0.7 0.5-0.7 0-0.1 0.3-0.7 0.3-0.7 0.7-1.5 0.4-0.8 0.8-1.4 0.5-0.7 0.7-0.9l-0.1-0.5 0.8-0.6v-0.2q-0.1 0-0.4 0.1-0.1 0-0.4 0.1v-0.2h0.2l1.5-2.2q0.6-0.7 0.7-1.5 0.3-0.8 0.5-1.3 0.3-0.7 1.1-0.8l0.1-0.2h0.2v-0.1q1.1 0 2.1 0.4 1.1 0.4 2 1.1 0.1 0.1 0.3 0.2 0.2 0.1 0.3 0.2 0.4 0.3 0.6 0.6 0 0.2 0 0.3 0.1 0.1 0.1 0.2v0.9q0 0.5-0.3 1-0.2 0.4-0.5 0.8-0.4 0.4-0.7 0.8-0.4 0.4-0.6 0.8-0.2 0.3-0.6 0.9-0.5 0.6-0.7 0.6-0.8 1.1-1.8 2.2-0.9 1.1-2 2h-0.1q-0.7 0.9-1.4 1.6l-0.5 1.6-0.3 0.3q-0.2 0.1-0.4 0.4-0.2 0.1-0.6 0.9-0.3 0.8-0.7 1.6-0.4 0.7-0.6 0.8 0.4-1.1 0.9-2.1 0.4-1 0.9-2h0.1l-0.1-0.2-0.6 0.5-0.5 0.6q-0.4 0.7-0.4 1.5l-0.4-0.1v0.1q0.1 0.1 0.1 0.3 0 0.1-0.2 0.8-0.2 0.8-0.5 1.5-0.2 0.7-0.5 0.7v0.4q0 0.2 0.1 0.4 0 0.2-0.2 0.9-0.3 0.6-0.3 0.8h-0.1l-0.2-0.1q0 0.2 0 0.2v0.3q-0.1 0.4-0.7 0.6 0 0.3 0 0.5 0.1 0.2 0.1 0.3 0 0.6-0.2 1.1l-0.3 1q-0.6 1.8-1.1 4-0.5 2.2-0.5 4 0 0.9 0.2 1.9 0.2 1 0.7 1.7 0.6 0.7 1.6 0.7 1.2 0 2.8-1 1.7-0.9 3.5-2.4 1.8-1.5 3.5-3.1 1.8-1.7 3.2-3.2 1.4-1.5 2.2-2.5 0.2-0.1 0.3-0.6 0.2-0.4 0.2-0.5 0-0.1-0.1-0.1-0.2 0-1 0.8-0.8 0.8-1.8 1.8-0.9 1.1-1.6 1.9-0.7 0.8-0.9 0.8v-0.1q0-0.1 0.1-0.3 0.1-0.3 0.2-0.4 0.1-0.4 0.6-0.9 0.3-0.2 0.5-0.4 0.2-0.2 0.3-0.3 1.1-1.2 2.3-2.4 1.2-1.3 2.1-2.7l2.8-4.2q0-0.4 0.3-1.2 0.3-0.8 0.7-1.4 0.5-0.8 0.9-0.9 0 0 0.2-0.5 0.2-0.5 0.4-1 0.2-0.6 0.2-0.6v0.1q0.1 0.1 0.1 0.3 0 0.2 0 0.3v0.1q0 0.1 0.1 0.1 0 0 0-0.1 0.3-0.4 0.3-1-0.1-0.3-0.1-0.6 0-0.3 0-0.6 0-0.4 0.6-0.6 0.4-0.2 0.7-0.6 0.2-0.3 0.5-1 0.3-0.7 0.4-1.4 0.3-0.8 0.3-1.1 0-0.2 0.5-0.5 0.5-0.3 0.5-0.6 0-0.3-0.2-0.4-0.4-0.1-0.4-0.3h0.1q0-0.3 0-0.4 0.1-0.2 0.1-0.3-0.1-0.1-0.1-0.2 0-0.3 0.2-0.5 0.2-0.3 0.2-0.7 0-0.3-0.1-0.4 0-0.2 0-0.4 0-0.3 0.2-0.5 0-0.3 0-0.6 0.1-0.4 0.2-0.7-0.4-0.4-0.4-1 0-0.3 0-0.5 0-0.3 0.1-0.5 0-0.2 0-0.5 0-0.2 0-0.4 0-0.6-0.4-0.9-0.5-0.2-0.5-0.4 0-0.5 0.4-0.9-0.1-0.2-0.5-0.5-0.3-0.2-0.2-0.6-0.3-0.1-0.5-0.5-0.2-0.3-0.2-0.6 0-0.6 0.7-0.6 0.3 0 0.5 0.1 0.3 0.2 0.4 0.3 1.4 1.4 2.2 3.2 0.8 1.6 0.8 3.6 0 1.3-0.2 2.5-0.1 1.1-0.4 2.3 0.1 0 0.1 0.1 0 0.5-0.3 1.1-0.4 0.7-0.4 1.1 0 0.2 0 0.4 0 0.1 0.1 0.4 0 0.2 0 0.4 0.1 0.1 0.1 0.4 0 0.1-0.1 0.3-0.1 0.1-0.4 0.4-0.2 0.3-0.3 0.5 0.1 0 0.2 0 0-0.1 0.1-0.1-0.3 0.4-0.5 1.2-0.2 0.7-0.2 0.9v0.1q0 0 0.1 0l0.1-0.1-0.5 1.6q0.1 0.1 0.1 0.5 0 1.2-1 1.7l-1.2 2.8q-0.6 1.4-1.5 2.7-0.2 0.1-0.3 0.3-0.2 0.1-0.3 0.2l-0.6 0.6-0.2 0.2q0 0.1-0.2 0.3 0 0.2 0 0.5 0 0.1-0.3 0.3 0 0.1 0.1 0.1v0.1q0 0.3-0.3 0.4-0.3 0.1-0.6 0l-0.5 0.7q0.1 0.1 0.1 0.3 0 0.1 0 0.2 0 0.7-0.3 0.5h-0.6l-0.1 0.1q0 1.1-1.1 1.3l-0.5 0.6q0 0.4-0.4 0.5-1.4 1.6-2.8 3.2-1.5 1.5-2.9 3-0.8 0.8-2.2 1.8-1.4 0.9-3 1.8-1.7 0.9-3.2 1.4-1.6 0.6-2.6 0.6-3.2 0-4.6-2-1.3-2-1.3-5 0-2.2 0.6-4.4 0.7-2.2 1.5-4.2l-0.6-0.1 0.1-0.1q0.1-0.1 0.1-0.2 0-0.2 0-0.3 0-0.3 0.1-0.5l0.1-0.1v0.2h0.1l-0.1-0.9 0.7-0.1v-0.1l-0.2-0.4h0.1l0.6-1.3q-0.2 0.2-0.4 0.3-0.2 0.2-0.4 0.4l-0.9 1 0.1-0.3h-0.4l-0.1 0.3h-0.2l-0.1 0.3 0.2-0.2h0.4q-0.1 0.1-0.3 0.4-0.2 0.3-0.3 0.4l-0.1-0.2-0.1 0.3h0.1q-0.3 0.4-0.7 0.7-0.3 0.3-0.7 0.6l-1.4 1.2-0.1 0.5-0.2 0.2h-0.4l-0.1 0.2 0.1 0.2-0.3 0.1q-0.1 0.1-0.1 0.2-0.1 0.1-0.1 0.2-0.3 0.2-0.3 0.4-0.1 0.1-0.5 0.5-0.4 0.5-0.7 0.9-0.3 0.4-0.4 0.5h0.2l0.1 0.5h-0.1l-0.1 0.2-0.2 0.1v-0.3h-0.3l-0.1 0.2q-0.6 0.5-1.2 1.1-0.5 0.6-1.1 1.2l-0.1 0.9q-0.1 0.1-0.4-0.2h-0.1q0.1 0.4 0.1 0.4 0 0.2-0.1 0.3-0.6 0.3-0.9 0.8-0.2 0.5-0.3 1.1h-0.7l-1.7 2.6h-0.1l-0.2-0.7q-0.6 1.3-1.2 1.9-0.6 0.6-1.4 0.9-0.8 0.1-2.3 0.1zm13.4-39.8l0.3-0.3h-0.1q-0.1 0.1-0.2 0.3-0.1 0.1 0 0zm15.4 11.1l1-0.9q0.8-0.7 1-0.7 0.1-0.3 0.8-1.1 0.6-0.8 1.4-1.7 0.8-1.1 1.4-1.8 0.7-0.7 0.9-0.9-0.1 0-0.1-0.1 0 0 0.2-0.4 0.1-0.4 0.3-0.8 0.2-0.4 0.2-0.5-0.7 0.5-1.7 1.2-1 0.6-1.9 1.3-0.9 0.7-1.2 1.3-0.5 0.8-0.9 1.6-0.3 0.7-0.6 1.6v-0.1 0.1q-0.2 0.5-0.4 0.9-0.3 0.5-0.4 1zm-17-4.3l-0.2 0.3h0.2l0.1-0.3zm-26.1 1.4l-0.1 0.3q0.3-0.2 0.3-0.4 0 0.1-0.2 0.1zm25.2 0.7h0.1l0.1-0.2 0.5-0.5h-0.3l-0.1 0.2h-0.1q-0.2 0-0.2 0.1 0 0.1 0 0.2v0.1q0 0.1 0 0.1zm40.1-0.5l-0.3 0.3q0.1-0.3 0.3-0.3 0 0 0 0zm-67.5 2.4v0.2q0.1-0.1 0.1-0.1 0-0.1 0-0.1 0-0.2 0.1-0.2h-0.2q0 0-0.2 0v0.2zm44.1 1.4l0.4-0.3h-0.2q-0.1 0.1-0.2 0.3zm-46.4 0.7h0.1q0.3 0 0.3-0.1 0 0 0-0.2 0.3 0 0.4 0v-0.2q-0.1 0-0.1-0.2l-0.2 0.1v0.2q-0.1 0-0.3 0.1-0.2 0-0.2 0.3zm-0.8 3.6h0.1l-0.1-0.2-0.3-0.2q0-0.1 0.1 0.2 0.2 0.2 0.2 0.2zm67.1 26q-0.6 0-1.1-0.3-0.4-0.4-0.8-0.8-0.7-1-1.2-1.7-0.5-0.7-0.5-2v-1.8q0-0.5 0.2-1.5 0.3-1.1 0.7-2.1 0.5-1.1 0.8-1.4 0.5-1.7 1.2-3.3 0.7-1.6 1.8-2.9-0.6-1.3-0.8-2.8-0.1-1.4-0.1-2.9 0-0.5 0-0.8 0-0.4 0.1-0.9l0.2-0.2v-0.1-0.2q0-0.1 0-0.2 0-0.2 0.1-0.7 0.2-0.5 0.3-1 0.2-0.5 0.2-0.6 0-0.1 0.2-0.2l0.3-0.1q0.1 0 0.3-0.2l0.2-0.1q0.5-0.7 1.4-0.9 1.1-0.3 1.9-0.3 1.7 0 2.5 1.2 0.8 1.1 1.3 2.6 0.4-0.3 0.8-0.3 0.2 0 0.3 0.1 0.9 0.2 2 1 1.2 0.7 1.2 1.6v0.1q0 0.3-0.6 0.8-0.5 0.5-1.3 1.1-0.8 0.5-1.5 0.9-0.7 0.5-1 0.7-0.4 0.2-0.8 0.4-0.2 0-0.4 0.2-0.1 0.1-0.4 0.2-0.3 0.3-0.5 0.5-0.3 0.2-0.6 0.5l-0.5 0.5q-0.1 0.2-0.3 0.4-0.1 0.1-0.2 0.2-0.2 0.1-0.4 0.3-0.3 0.1-0.5 0.4-0.7 0.4-0.8 0.8 0 0.1-0.2 0.5-0.1 0.4-0.1 0.6 0 0.6 0.1 1.5 0.2 0.9 0.6 1.7 0.1 0.5 0 1-0.2 0.5-0.7 0.2-0.4-0.5-0.8-1.2-0.3-0.7-0.4-1.1 0-0.1 0.1-0.2 0.1 0 0-0.1l-0.1-0.1q-0.1-0.1-0.1-0.2 0 0-0.1-0.1-0.5 0.4-1 1.5-0.5 1-0.7 1.6l-0.4 0.8q-0.2 0.6-0.4 0.6-0.2 0-0.2-0.3 0-0.4 0.2-0.7l0.3-1q-0.3 0.5-0.5 1.1-0.1 0.5-0.1 0.6v0.1 0.1q0 0.1 0.1 0.1v0.3q-0.1 0-0.1 0.1-0.1 0.5-0.3 1.1-0.1 0.6-0.3 1.2-0.4 1-0.4 2.3 0 1 0.3 1.6 0.4 0.7 1.3 0.7 0.5 0 0.9-0.1 0.5-0.2 1.4-0.8 0.9-0.7 1.8-1.6 0.9-0.9 1.5-1.7 0.7-0.8 0.7-1.2 0.2-0.3 0.5-0.6 0.2-0.3 0.1-0.6 0.8-1.1 1.3-2.7 0.6-1.7 0.9-3.4 0.4-1.7 0.5-3 0.1-0.5 0.2-0.6 0.1-0.3 0.2-0.3v-0.1q0.1-0.1 0.1-0.3 0-0.1 0-0.3 0-0.2 0-0.3-0.1-0.4-0.1-0.7 0-0.2 0.1-0.6 0.2-0.4 0.5-0.4 0.4 0 0.7 0.6 0.2 0.7 0.3 1.4 0.2 0.7 0.2 1.1 0 1.3-0.3 2.9-0.3 1.6-0.7 3-0.4 1-1 1.8-0.4 0.8-1 1.8l-0.6 0.9-0.2 0.4q-0.1 0-0.2 0.2 0 0.3-0.1 0.3 0 0-0.1 0.1 0 0 0 0.1-0.3 0.5-0.7 0.8-0.3 0.2-0.5 0.5-0.2 0.1-0.3 0.4-0.6 0.9-1.6 1.9-0.9 1.1-2 1.8-1.1 0.8-2.3 0.8zm2.5-19.3l0.1-0.1 0.1-0.4q0.2-0.8 1.2-1.8 1.1-1 1.8-1.7 0.5-0.5 1-1 0.5-0.6 1.1-1-0.2-0.5-0.6-1.2-0.3-0.7-0.8-1.3-0.4-0.6-0.8-0.6-0.6 0-1.1 0.5l-0.1 0.1q-0.1 0.2-0.2 0.2l-0.3 0.1q0 0.1-0.1 0.1v0.1q-0.2 0.5-0.5 1.1-0.2 0.2-0.3 0.4 0 0.2-0.1 0.3-0.3 1-0.5 2-0.2 1.1-0.2 2.1 0 0.5 0.1 1.1 0 0.5 0.2 1zm18.9 12.5q-0.2 0-0.3-0.1-0.1 0.1-0.3 0.1-0.8 0-1.5-1.1-0.8-1-0.8-1.7 0-1.3 0.7-2.8l1.3-2.6q0.3-0.7 0.3-0.9 0 0-0.3-0.4l-0.3-0.3q-0.1-0.1-0.2-0.2 0-0.1-0.2-0.2-0.3-0.4-0.6-0.9-0.4-0.6-0.5-1.2-0.1 0.1-0.5 0.8-0.4 0.8-0.8 1.4-0.4 0.7-0.6 0.7-0.2 0-0.2 0-0.1-0.1-0.2-0.1-0.1 0-0.3 0.5-0.2 0.3-0.6 1-0.4 0.6-0.8 1.2-0.4 0.6-0.7 0.6-0.3 0-0.3-0.3 0-0.1 0.3-0.6 0.2-0.5 0.5-1 0.3-0.5 0.4-0.6 0.7-1 1.2-1.7 0.4-0.7 0.8-1.5 0.4-0.8 0.7-1.5 0.4-0.8 0.9-1.8 0.1-0.8 0.4-1.6 0.8-2.6 2-4.5 1.2-1.9 2.9-3.9 0.4-0.4 0.9-1 0.6-0.6 1.2-1.1 0.6-0.5 1-0.5 0.3 0 0.8 0.2 0.2 0.2 0.3 0.3 0.2 0.1 0.4 0.2l1.1 0.6q0.7 0.4 0.7 1.1 0 0.3-0.1 0.3-0.2 0.7-1.1 1.4-1 0.7-2.1 1.4-1.1 0.8-1.8 1.5-1 0.9-1.7 2-0.8 1.2-1.4 2.5 0 0.2-0.2 0.4 0 0.1-0.1 0.4 0 0.4-0.3 0.9 0 0.1-0.1 0.3 0 0.1 0 0.2 0 0.3 0 0.4 0.1 0.2 0.1 0.5 0 0.3-0.1 0.5 0 0.1 0 0.5 0 0.6 0.6 1.2 0.6 0.5 1.2 1.1 0.6 0.6 0.6 1.4 0 0.7-0.4 1.7-0.5 1-1.1 1.9-0.5 1-0.9 1.8l-0.3 0.7-0.1 0.4q0 0.1 0.1 0.1l0.1 0.2q0.5 0 1.4-0.8 0.9-0.7 1.8-1.6 1-0.9 1.3-1.2 0.7-0.8 1.3-1.6 0.5-0.8 1-1.7 0.1-0.3 0.4-0.6 0.3-0.4 0.5-0.4 0.4 0 0.4 0.4 0 0.3-0.6 1.4-0.6 0.9-1.3 1.9-0.7 1-1 1.3v0.1q-0.2 0.4-0.5 0.5-0.1 0.1-0.2 0.3-0.1 0.3-0.2 0.3 0 0.1-0.1 0.2l-0.3 0.1q0 0.2-0.3 0.4l-0.4 0.3q0 0 0 0.1 0 0-0.1 0 0 0.4-0.4 0.4-0.1 0.2-0.4 0.6-0.1 0.3-0.4 0.3-0.3 0.4-0.8 0.4 0 0.1 0 0.2 0 0-0.1 0.1-0.1 0.3-0.5 0.3 0 0-0.2 0zm8 6q-0.3 0-0.6-0.2-0.3-0.2-0.6-0.3-1.5-0.9-2-2.3-0.4-1.5-0.4-3 0-2.2 0.5-4.3 0.5-2.2 1.1-4.3 1.3-4.3 3.2-8.3 2-4.1 4.5-7.8 0.4-0.7 0.8-1.2 0.4-0.6 0.9-1.2 0.4-0.5 0.8-1.1 0.4-0.6 0.8-1.2l0.8-1q0.2-0.2 0.4-0.4 0.2-0.3 0.4-0.6 0.1-0.3 0.1-0.5-0.1-0.1-0.1-0.5 0-0.5 0.8-1.3 0.3-0.3 0.5-0.6 0.3-0.2 0.5-0.5 0.3-0.4 0.6-0.8 0.4-0.5 0.6-0.9 0.3-0.5 0.6-0.9 0.4-0.5 0.6-0.9 0.4-0.5 0.8-0.9 0.4-0.5 0.8-0.9 0.4-0.5 0.8-0.9 0.4-0.5 0.7-1.1 0.9 0.3 2 0.7 1 0.4 1.7 1 0.7 0.6 0.7 1.7 0 0.4-0.3 0.9-1.2 1.2-2.6 2.3-0.7 0.6-1.4 1.2-0.6 0.7-1.2 1.3-1.7 1.9-3.6 4.7-1.9 2.6-3.5 5.5-1.7 2.8-2.8 5.2l-0.3 0.5-0.4 0.3v-0.4l0.1-0.4q-0.4 0.6-0.6 1.2-0.3 0.6-0.6 1.2l-1.2 2.4q-0.5 1.1-1 2.1-0.5 1.1-0.8 2.3 0 0.1 0 0.4 0 0.2-0.1 0.4 0 0.4-0.4 0.4-0.2 0-0.2-0.3 0-0.8 0.4-1.7 0 0-0.1 0.1 0 0.1-0.1 0.2-0.2-0.3-0.2-0.3v-0.1q0-0.7 0.3-1.5-0.3 0.3-0.4 0.5-0.1 0.4-0.3 0.9-0.1 0.4-0.3 0.8-0.2 0.4-0.3 0.9-0.2 0.4-0.3 0.8l-0.3 1.9q-0.1 0.4-0.2 1-0.1 0.4-0.2 0.9-0.3 1.5-0.3 2.9 0 0.1 0 0.3 0 0.1 0.1 0.3 0 0.2 0 0.3 0 0.2 0.1 0.4l0.1 0.7q0.1 0.1 0.1 0.3 0 0.1 0.1 0.2 0.1-0.2 0.5-0.3v0.3q0.2 0.2 0.3 0.4 0.2 0.1 0.5 0.1 0.8 0 1.6-0.7 0.9-0.7 1.6-1.7 0.8-1 1.1-1.6 0.2-0.3 0.5-0.6 0.2-0.3 0.4-0.5 0.3-0.2 0.5-0.5 0.2-0.3 0.4-0.6 1.2-1.8 2.3-3.6 0.1-0.2 0.2-0.4 0.1-0.1 0.2-0.2l0.5-0.5q0.3-0.3 0.4-0.3 0.2 0 0.2 0.2 0 0-0.3 0.7-0.3 0.7-0.5 1v0.1q-0.6 0.9-1.1 1.8-0.6 0.9-1.1 1.9-0.4 0.9-1 1.8-0.5 1-1.1 1.9-0.6 0.8-1.2 1.8-0.5 1-1.2 1.8-0.7 0.8-1.7 0.9-0.1 0.1-0.3 0.1-0.1 0-0.3 0h-0.5q-0.3 0.2-0.5 0.2zm4.5-22.8l-0.3 0.4q0.3-0.2 0.4-0.4 0.1-0.3 0.3-0.6 0.2-0.4 0.5-0.8 0.2-0.4 0.4-0.8h0.1v-0.2q-0.1 0-0.4 0.5-0.1 0.3-0.2 0.5-0.2 0.3-0.3 0.5zm-2.1 3.9q-0.7 0.9-0.7 2.1 0.4-1.2 1-2.1l0.6-0.9q0.3-0.4 0.4-1.1l-0.1-0.1q-0.5 1.1-1.2 2.1zm-0.3 3.3q0.2-0.2 0.2-0.2 0.2-0.7 0.4-1.2 0.2-0.6 0.3-1.2-0.1 0.5-0.5 1.4-0.4 0.7-0.4 1.2zm7 12.4q-0.2 0-0.2-0.1-0.3-0.1-0.3-0.1l-0.2-0.1v-0.1h-0.1l-0.6-0.6 0.1-0.2q-0.7-0.5-0.9-1.4-0.1-0.8-0.1-1.6 0-0.5 0.1-1 0.1-0.5 0.4-0.9l-0.1-0.2 0.3-0.2v-0.1q0-0.8 0.7-2.1 0.7-1.3 1.6-2.5 0.9-1.3 1.6-1.9l-0.1-0.1q0.2-0.2 0.7-0.9 0.5-0.7 0.9-1.2 0.5-0.5 0.8-0.5l0.8-0.9v-0.3l0.2-0.1 0.5-0.2-0.1-0.1q0.5-0.7 1.3-1.2 0.8-0.5 1.5-0.9l0.9-0.6 0.4-0.1 0.2-0.1q0.1-0.2 0.6-0.2 0.8 0 2 0.5 1.3 0.5 1.5 1.2 0.4 0.3 0.5 0.6 0.2-0.4 0.3-0.8 0.1-0.4 0.1-0.7 0-0.6 0.4-1.3l0.1-0.2q0.4-0.9 1.2-1.7 0.4-0.3 0.7-0.8 0.3-0.5 0.5-0.9 0-0.1 0.3-0.9 0.4-0.6 0.2-0.7 1.1-1.5 1.9-3.1 0.9-1.6 1.7-3.3 0.7-1.7 1.5-3.4 0.8-1.7 1.6-3.3 0.1 0 0.1-0.2 0-0.2-0.1-0.3 0-0.1-0.1-0.3l0.9-1.2q0.3-0.2 0.5-0.5 0.3-0.3 0.5-0.5 0.6 0 1.2 0.1 0.7 0 1.2 0 1.3 0 2.4 0.5 0.5 0.3 1.2 0.7 0.7 0.4 0.7 1.2 0 0.7-0.7 1.4-0.4 0.3-0.8 0.6-0.3 0.2-0.5 0.5-0.4 0.5-0.8 0.9-0.4 0.4-1 0.6l-0.2-0.2h0.2q0.3-0.6 0.9-1.6 0.6-0.8 0.6-1.4 0-0.3-0.1-0.4l-0.1 0.1h0.1q-0.3 0.4-0.6 0.6-0.2 0.2-0.5 0.5-0.3 0.2-0.5 0.5-0.2 0.3-0.4 0.6-0.4 0.5-1.2 1.7-0.8 1.1-1.7 2.2-0.8 1.1-1.2 1.5l-0.1 0.1h-0.1q0.1 0.2 0.4 0.2-0.3 0.2-0.8 0.2 0.2 0.3 0.2 0.4 0 0.4-0.3 0.5-0.4 0.1-0.7 0.1 0 0.9-0.6 1.1-0.1 0-0.2 0 0 0 0 0h-0.2q0.2 0.1 0.3 0.3 0.2 0.1 0.2 0.1l-0.1 0.1 0.1 0.1h-0.3q-0.3 0-0.2 0.1l0.1 0.3h0.3q0.3 0 0.4 0.1h-0.2l-0.1 0.5q0.1-0.1 0.5-0.1 0.8-0.9 1.4-1.9 0.7-1 1.4-1.9 0.7-1 1.4-1.9 0.7-1 1.4-1.9v-0.1q0.1 0.1 0.1 0.4 0 0.4-0.5 1.3-0.5 0.9-1.3 1.9-0.7 1-1.5 2-0.6 0.9-1.1 1.4-0.1 0.2-0.3 0.6-0.2 0.2-0.4 0.5-0.2 0.2-0.4 0.5-0.3 0.3-0.4 0.5-0.3 0.1-0.3 0.3v0.5q0 0.3-0.3 0.4-0.6 0.2-0.9 0.8-0.2 0.5-0.4 1.1-0.1 0.6-0.6 1.1-0.2 0.2-0.6 1-0.5 0.7-0.9 1.5-0.5 0.6-0.8 0.6l0.3 0.4q-0.6 0.4-0.6 0.6 0.1 0.1 0.1 0.8 0 0.1-0.5 0.4-0.4 0.3-0.4 0.5l-0.7 0.6q-0.2 0.5-0.4 0.9-0.3 0.4-0.4 0.6-0.5 0.5 0 1.6-0.4 0.4-0.2 0.6 0.1 0.2-0.2 0.6l-0.7 1.2 0.3 0.4-0.3 0.1v0.6q0-0.1 0 0 0 0.3 0.1 0.3l-0.2 0.3 0.1 0.3-0.3 1.1q-0.1 0.5 0 1.1-0.2 0.2-0.2 0.7 0 0.1 0.1 0.1v0.7q0.1 0 0.1 0.2l-0.1 0.1 0.1 0.1q0.2-0.1 0.3-0.3 0-0.1 0.3 0l2.1-1.5 0.4-0.1q0.4-0.4 0.8-1.2 0.5-0.8 0.9-0.5 0.1 0.6-0.8 1.6-0.8 0.9-1.8 1.7-1 0.8-1.3 1.1v0.5q0 0-0.2 0.1-0.1 0-0.1 0-0.2-0.1-0.3 0-0.1 0-0.3 0l-0.3 0.8-0.1-0.1q-0.1 0-0.3 0.1-0.1 0-0.2 0.1-0.4 0.2-0.7 0.2-0.4 0-0.7-0.9-0.3-1-0.6-2-0.3-1-0.3-1.2l0.2-0.1q-0.2-0.3 0-0.4 0.1-0.2-0.2-0.3l0.3-0.3h0.1v-0.5q0-0.3-0.3-0.2l-0.1-0.2 0.2-0.3 0.1-0.3v-0.1q0-0.1 0-0.1 0.1 0 0.1-0.1l-0.3-0.2q-0.1-0.2-0.1-0.6 0-0.5 0.3-0.5 0-0.6 0.2-1.1 0.2-0.5-0.3-0.3l-0.4 0.2q0 0.2-0.2 0.2-0.1 0.2-0.5 0.7-0.2 0.4-0.6 0.4 0 0.1 0.1 0.1 0 0.4-0.7 0.9-0.7 0.6-0.6 1.2l-1 0.8 0.1 0.1h-0.1v0.2q-0.6 0.8-1.6 0.8-0.4 0-0.6 0.5-0.1 0.5-0.5 0.5h0.2q-0.4 0.4-1 1-0.6 0.6-0.7 1.2l-0.1-0.1 0.1 0.2-0.3 0.2q0 0.4-0.4 0.5-0.4 0.1-0.8 0.1-0.4 0.6-1.1 1.1-0.7 0.4-1.3 0.4zm19.5-23.9h0.1q0.6 0 0.6-0.1 0-0.3 0.1-0.6h0.4q0.3 0 0.3-0.1 0 0 0-0.2-0.3 0.1-0.5 0.1-0.2 0.1-0.4 0.1-0.6 0.1-0.6 0.7zm-20.3 22.2l0.2 0.4h0.7q0.1 0 0.3 0 0.2-0.1 0.4-0.2 0.3-0.2 0.7-0.2 0 0-0.1-0.1 0-0.1 0.1-0.1 0 0.1 0 0h0.1q0.2-0.3 0.5-0.4 0.3-0.2 0.6-0.4 0.5-0.3 0.9-0.8l0.2 0.1v-0.3q0.4 0 0.4-0.4 0-0.3 0.5-0.3 0.4-0.3 0.8-0.7 0.4-0.5 0.8-1.1 0.5-0.5 0.9-0.9 0.4-0.5 0.7-0.9l0.1 0.1q0.3-0.4 0.4-0.5 0.1-0.2 0.1-0.3 0.2-0.1 0.3-0.3l0.1 0.2q0.4 0 0.4-0.4l-0.1-0.1 0.4-0.3v-0.2q0.1 0 0.1 0 0 0.1 0.2 0.2-0.1-0.2 0-0.4 0.2-0.2 0.4-0.1v-0.2l0.5-0.7q0.1-0.1 0.3-0.3 0.2-0.2 0.4-0.6 0.1-0.4 0.2-0.6 0.1-0.2 0.2-0.3 0.5 0 0.6-0.8 0.1-0.8 0.7-1.3 0.4 0 0.6-0.2 0.2-0.2 0.3-0.6 0.3-0.3 0.3-0.7-0.1-0.4-0.1-0.5 0-0.2 0.2-0.3 0.1-0.1 0.1-0.2 0-0.1-0.4-0.3-0.4-0.3-0.5-0.3 0 0-0.1 0.1 0 0 0-0.1-0.1 0-0.3 0-1.2 0-2.1 0.8-0.8 0.7-1.7 1.5-0.8 0.8-1.8 0.8-0.1 0.4-0.5 0.7-0.3 0.2-0.5 0.4v0.2l-0.6 0.3v0.1q0.2 0.4-0.1 0.3h-0.4v0.2q-0.1 0.2-0.1 0.3-0.4 0.3-1 0.8-0.6 0.4-0.9 0.9h-0.1l-0.1 0.2 0.1 0.1-0.3 0.3-0.2-0.1 0.1 0.3q-0.3 0.3-0.9 0.9-0.7 0.7-0.6 1.1h-0.2l-0.2 0.7h-0.2l-0.2 0.3h-0.2l0.1 0.1v0.4q-0.1 0-0.1 0.2l0.1 0.1-0.6 0.8 0.3 0.1v0.1q0 0.1-0.3 0.1v0.1q0 0.2-0.2 0.3-0.1 0.1-0.1 0.2-0.1 0.1-0.2 0.7-0.1 0.7-0.2 1.3-0.1 0.6-0.2 0.7zm27-6.2l-0.3 0.1-0.3-0.6q0.2-0.7 0.4-1.2 0.2-0.7 0.4-1.2 0.2-0.7 0.3-1.2 0.3-0.6 0.5-1.2v-0.4l0.4-0.9-0.1 0.2 0.1 0.3q0.7-0.7 1-1.2 0.2-0.4 0.5-1.4l-0.1-0.6 0.5-0.3 0.4 0.2q0.4-1.6 0.6-2.8 0.2-1.3 1.2-2.5 0.2-0.7 0.4-1.3 0.3-0.7 0.6-1.4 0.3-0.6 0.6-1.2 0.3-0.7 0.6-1.3l-0.2-0.2-0.4 0.6-0.2-0.2 0.5-1.4 0.2-0.4 0.6 0.2q0.5-0.8 0.7-1.6-0.1-0.3-0.3-0.3-0.3-0.1-0.3-0.5l0.3-0.6 0.2 0.2 0.2-0.4 0.5 0.4 0.4-1-0.3-0.4-0.1-0.7 0.5-0.7 0.8 0.1 0.1-0.2q-0.2-0.8-0.2-1.7l0.6-1.2-0.1-0.7 0.4-0.8 0.2 0.3 0.5-0.2q0.9 0.3 1.9 0.7 1.1 0.4 1.8 1 0.8 0.6 0.7 1.6l-0.1 0.4q-0.7 0.4-1.3 1.3v0.2l-0.4 0.3h-0.1q-0.1 0.2-0.5 1.2-0.4 0.9-0.8 2.1-0.5 1.1-0.9 1.9-0.4 0.7-0.7 0.6l-0.5 1.4 0.2 0.5q-0.2 0.5-0.5 1.1-0.3 0.5-0.4 1.1-0.3 0.1-0.5 0.3-0.3 0.2-0.5 0.5l-0.2-0.8-0.5 0.8 0.2 0.7 0.8-0.4-0.1 0.8h-0.5l-0.6 0.9h-0.2l-0.4-0.9-0.6 0.9 0.6 0.6 0.1 1.1-0.2 0.1-0.4-0.2q-0.7 0.4-1 1.2l0.3 0.7 0.1-0.1q-0.4 1-0.9 1.3l-0.4-0.2q-0.3 0-0.4 0.4-0.2 0.5-0.5 0.5l-0.4 0.3-0.2-0.7-0.3 0.8 0.1 0.4-0.3 0.1-0.1-0.4q-0.4 0.8-0.7 1.5-0.3 0.8-0.6 1.6-0.6 0.5-1.3 1.8-0.6 1.4-1.1 2.3zm9.1-18l0.2 0.5 0.3-1.5 0.4-0.5-0.8-0.2-0.1 0.9 0.2 0.2zm-1.2 1.3l0.6 0.1 0.1-0.6-0.2-0.1zm-2.4 0.5l-0.3 0.1 0.3-0.6zm1.5-0.4l-0.2 0.8 0.3-0.3zm-0.8 4.7l0.4 0.5 0.4-1.3-0.7 0.1zm-1.2 1.6l0.2 0.2 0.3-0.2q0-0.5 0.1-1.1 0-0.5 0.1-1h-0.4q0 0.5-0.1 1 0 0.6-0.2 1.1zm-2.6 2.3l-0.2 0.6-0.5-0.6zm1.3 3l-0.4 0.4-0.1-0.2 0.5-0.5h0.1zm-6 15.8q-0.4 0.1-1.1-0.3-0.7-0.4-1.2-1-0.5-0.5-0.5-0.9 0-0.2 0.9-0.7 0.8-0.5 2-1.2 1.2-0.7 2.1-1.2 1-0.5 1.2-0.7v0.1q-0.1 0.4-0.5 1-0.5 0.6-0.8 0.9l0.1 0.5-0.3 0.9q-0.3 0.4-0.8 1.5-0.5 1-1.1 1.1z"/>
</svg>