<?xml version="1.0" standalone="no"?>
<!DOCTYPE svg PUBLIC "-//W3C//DTD SVG 20010904//EN"
 "http://www.w3.org/TR/2001/REC-SVG-20010904/DTD/svg10.dtd">
<svg version="1.0" xmlns="http://www.w3.org/2000/svg"
 width="472.000000pt" height="88.000000pt" viewBox="0 0 472.000000 88.000000"
 preserveAspectRatio="xMidYMid meet">

<g transform="translate(0.000000,88.000000) scale(0.100000,-0.100000)"
fill="#000000" stroke="none">
<path d="M4203 825 c-19 -19 -32 -39 -28 -45 3 -5 1 -10 -5 -10 -14 0 -70
-122 -101 -220 -13 -41 -26 -77 -29 -80 -3 -3 -26 -33 -49 -67 -24 -35 -48
-63 -54 -63 -12 0 -2 79 15 127 15 40 1 61 -28 45 -15 -8 -23 -5 -41 14 -21
23 -24 24 -52 10 -36 -19 -72 -91 -73 -145 -1 -91 43 -83 114 19 17 25 17 25
12 -20 -5 -35 -2 -50 13 -69 17 -21 22 -22 42 -12 12 7 40 40 62 73 l39 61 -6
-47 c-5 -37 -3 -50 11 -66 10 -11 21 -20 25 -20 4 0 20 24 35 54 42 83 105
144 105 102 0 -31 -22 -72 -52 -97 -30 -25 -35 -59 -7 -59 6 0 47 36 91 80 78
77 95 103 40 59 l-27 -21 -8 32 c-15 60 -67 49 -119 -25 -17 -24 -33 -43 -36
-41 -2 3 2 31 8 63 11 52 19 64 69 110 100 90 153 230 105 277 -22 23 -32 20
-71 -19z m67 -40 c0 -25 -6 -60 -13 -78 -14 -33 -116 -151 -124 -143 -2 2 12
48 33 102 35 95 75 164 95 164 5 0 9 -20 9 -45z m-390 -295 c0 -30 -55 -119
-74 -120 -12 0 0 53 23 106 23 52 51 60 51 14z"/>
<path d="M2539 763 c-43 -36 -123 -161 -150 -232 -16 -44 -32 -65 -73 -98 -29
-24 -56 -43 -60 -43 -14 0 6 65 30 101 15 21 22 43 18 52 -12 32 -41 17 -85
-44 -36 -49 -45 -56 -47 -39 -2 11 6 37 17 56 26 44 26 54 2 54 -14 0 -24 -14
-37 -47 -20 -53 -102 -174 -122 -181 -16 -5 -9 50 15 116 19 53 6 75 -29 53
-16 -10 -23 -11 -26 -2 -5 16 -31 41 -42 41 -22 0 -78 -71 -89 -112 -15 -54
-12 -87 11 -102 20 -12 45 7 89 67 l27 37 -5 -39 c-10 -70 12 -110 52 -95 8 3
32 33 54 65 32 50 39 57 44 39 8 -31 23 -24 57 24 33 49 60 73 41 38 -18 -35
-14 -96 9 -109 27 -17 43 -9 84 44 l35 45 -6 -50 c-7 -64 9 -105 52 -132 47
-29 70 -25 121 22 50 46 64 67 75 115 9 40 -1 42 -23 5 -9 -16 -40 -50 -68
-76 -39 -36 -57 -47 -78 -44 -24 3 -27 7 -30 48 -3 51 42 194 84 268 14 23 22
47 19 52 -4 6 -3 9 2 8 5 -2 26 16 47 40 66 73 94 50 48 -39 -17 -32 -28 -59
-26 -59 21 0 63 34 74 59 22 53 -14 121 -64 121 -8 0 -29 -12 -47 -27z m-49
-133 c-6 -11 -13 -20 -16 -20 -2 0 0 9 6 20 6 11 13 20 16 20 2 0 0 -9 -6 -20z
m-27 -45 c-3 -9 -8 -14 -10 -11 -3 3 -2 9 2 15 9 16 15 13 8 -4z m-489 -91 c5
-20 -2 -37 -31 -77 -34 -46 -38 -49 -41 -29 -2 13 4 42 13 65 28 71 48 85 59
41z"/>
<path d="M3653 760 c-23 -10 -46 -43 -36 -54 3 -3 1 -6 -6 -6 -7 0 -9 -4 -6
-10 3 -5 -4 -28 -15 -50 -12 -23 -30 -83 -42 -133 -11 -51 -22 -102 -25 -115
-3 -13 -16 -29 -30 -35 -24 -11 -40 -48 -28 -66 10 -17 20 -13 53 19 18 17 54
36 89 45 94 26 117 37 100 46 -14 8 -118 -4 -137 -16 -14 -9 -14 -7 24 123 49
169 83 241 107 226 14 -9 10 -34 -13 -80 -23 -47 -21 -59 9 -50 25 8 53 57 53
93 0 47 -52 81 -97 63z"/>
<path d="M1509 743 c-1 -5 -3 -44 -5 -88 -3 -92 -4 -93 -41 -238 -23 -90 -25
-109 -14 -117 19 -11 39 -2 46 19 8 28 165 264 171 258 3 -2 0 -24 -6 -48 -15
-65 -27 -181 -20 -208 5 -22 35 -51 42 -41 2 3 34 67 72 143 67 134 146 255
189 289 17 13 19 20 10 29 -10 10 -16 9 -29 -2 -29 -24 -116 -160 -176 -274
-32 -60 -58 -102 -58 -92 0 36 31 220 40 237 27 51 -7 78 -43 34 -27 -33 -99
-135 -133 -187 -14 -22 -27 -37 -30 -35 -2 2 5 49 15 104 27 140 30 174 20
201 -8 21 -48 34 -50 16z"/>
<path d="M3150 700 c-25 -27 -90 -169 -90 -197 0 -17 -10 -16 -34 2 -27 21
-43 19 -69 -8 -12 -13 -38 -26 -58 -30 l-36 -5 9 45 c9 40 8 47 -13 69 -30 32
-58 27 -84 -12 -11 -17 -32 -38 -46 -46 -14 -9 -36 -36 -49 -62 -19 -41 -21
-51 -10 -77 28 -67 77 -62 147 15 32 35 58 55 79 59 l32 6 -15 -48 c-10 -35
-11 -55 -4 -75 14 -35 42 -33 86 5 l35 31 0 -39 c0 -89 46 -93 106 -10 21 29
55 73 77 100 21 26 34 47 28 47 -6 0 -32 -28 -59 -62 -26 -34 -59 -76 -74 -92
l-27 -31 -1 50 c0 74 13 107 73 187 77 103 102 155 88 184 -15 34 -56 31 -91
-6z m70 -23 c0 -21 -52 -116 -91 -166 -26 -32 -24 -14 6 65 43 115 85 164 85
101z m-378 -142 c-4 -51 -18 -75 -44 -75 -18 0 -20 4 -15 41 6 42 33 82 51 76
6 -2 10 -21 8 -42z m186 -57 c25 -25 14 -69 -30 -112 l-43 -41 -3 28 c-3 28
40 137 55 137 5 0 14 -5 21 -12z m-258 -13 c7 -8 19 -15 26 -15 22 0 17 -16
-17 -55 -57 -64 -87 -39 -53 45 18 44 25 48 44 25z"/>
<path d="M3303 538 c-35 -38 -52 -83 -57 -147 -5 -56 -4 -62 19 -77 13 -9 32
-14 42 -12 21 4 143 147 143 168 0 9 -12 0 -28 -20 -57 -73 -105 -120 -124
-120 -18 0 -19 5 -13 43 9 50 12 57 29 57 19 0 86 68 86 88 0 45 -63 57 -97
20z m67 -16 c0 -10 -14 -31 -31 -48 l-31 -29 7 25 c16 56 55 93 55 52z"/>
<path d="M1402 163 c-2 -39 0 -43 21 -42 16 1 17 3 5 6 -11 3 -18 17 -21 41
l-4 37 -1 -42z"/>
<path d="M1541 160 l1 -45 8 35 c5 20 5 39 -1 45 -5 5 -9 -8 -8 -35z"/>
<path d="M1598 188 c-2 -7 -1 -26 3 -43 6 -28 7 -26 8 13 1 42 -3 53 -11 30z"/>
<path d="M1711 158 c0 -31 3 -37 8 -24 7 18 3 66 -5 66 -2 0 -4 -19 -3 -42z"/>
<path d="M1746 187 c3 -10 9 -15 12 -12 3 3 0 11 -7 18 -10 9 -11 8 -5 -6z"/>
<path d="M2677 193 c-4 -3 -7 -19 -7 -35 0 -31 24 -48 42 -30 8 8 4 9 -12 5
-21 -6 -22 -3 -18 31 2 20 3 36 3 36 -1 0 -5 -3 -8 -7z"/>
<path d="M3083 160 c0 -25 2 -35 4 -22 2 12 2 32 0 45 -2 12 -4 2 -4 -23z"/>
<path d="M3601 160 l1 -45 8 35 c5 20 5 39 -1 45 -5 5 -9 -8 -8 -35z"/>
<path d="M3656 192 c-2 -4 -1 -23 4 -42 l8 -35 1 43 c1 41 -3 50 -13 34z"/>
<path d="M3920 161 c0 -23 2 -41 4 -41 8 0 12 71 4 76 -4 3 -8 -13 -8 -35z"/>
<path d="M4093 160 c0 -25 2 -35 4 -22 2 12 2 32 0 45 -2 12 -4 2 -4 -23z"/>
<path d="M4213 160 c0 -25 2 -35 4 -22 2 12 2 32 0 45 -2 12 -4 2 -4 -23z"/>
<path d="M2158 143 c5 -21 7 -23 10 -9 2 10 0 22 -6 28 -6 6 -7 0 -4 -19z"/>
<path d="M1576 145 c-9 -26 -7 -32 5 -12 6 10 9 21 6 23 -2 3 -7 -2 -11 -11z"/>
<path d="M3620 155 c0 -5 4 -16 9 -23 6 -11 10 -10 15 4 3 9 4 19 1 22 -3 3
-5 -1 -5 -9 0 -11 -2 -11 -10 1 -5 8 -10 11 -10 5z"/>
<path d="M1990 142 c0 -18 29 -27 43 -13 9 9 8 11 -7 5 -11 -4 -21 -2 -27 7
-6 10 -9 11 -9 1z"/>
<path d="M3770 142 c0 -18 29 -27 43 -13 9 9 8 11 -7 5 -11 -4 -21 -2 -27 7
-6 10 -9 11 -9 1z"/>
<path d="M3956 137 c3 -10 9 -15 12 -12 3 3 0 11 -7 18 -10 9 -11 8 -5 -6z"/>
<path d="M1868 123 c7 -3 16 -2 19 1 4 3 -2 6 -13 5 -11 0 -14 -3 -6 -6z"/>
<path d="M2298 123 c6 -2 18 -2 25 0 6 3 1 5 -13 5 -14 0 -19 -2 -12 -5z"/>
<path d="M2438 123 c6 -2 18 -2 25 0 6 3 1 5 -13 5 -14 0 -19 -2 -12 -5z"/>
<path d="M3368 123 c6 -2 18 -2 25 0 6 3 1 5 -13 5 -14 0 -19 -2 -12 -5z"/>
</g>
</svg>
