<?xml version="1.0" standalone="no"?>
<!DOCTYPE svg PUBLIC "-//W3C//DTD SVG 20010904//EN"
 "http://www.w3.org/TR/2001/REC-SVG-20010904/DTD/svg10.dtd">
<svg version="1.0" xmlns="http://www.w3.org/2000/svg"
 width="472.000000pt" height="88.000000pt" viewBox="0 0 472.000000 88.000000"
 preserveAspectRatio="xMidYMid meet">

<g transform="translate(0.000000,88.000000) scale(0.100000,-0.100000)"
fill="#000000" stroke="none">
<path d="M0 440 l0 -440 2360 0 2360 0 0 440 0 440 -2360 0 -2360 0 0 -440z
m4280 405 c6 -8 12 -37 12 -66 -1 -67 -62 -174 -127 -222 -44 -32 -53 -48 -70
-137 l-7 -35 30 41 c30 41 78 84 93 84 16 0 39 -32 39 -56 l0 -25 31 21 c33
24 56 18 24 -7 -11 -8 -27 -20 -35 -26 -9 -7 -31 -31 -49 -54 -38 -48 -65 -61
-87 -42 -13 11 -10 17 19 48 28 30 57 79 57 96 0 3 -6 5 -14 5 -19 0 -71 -63
-96 -117 -31 -67 -70 -49 -70 33 l0 38 -28 -45 c-40 -61 -66 -82 -91 -74 -25
8 -36 43 -28 92 6 36 6 36 -10 12 -30 -45 -67 -79 -85 -79 -65 0 -30 164 45
208 28 17 29 16 52 -10 13 -16 27 -23 30 -18 10 16 42 12 49 -6 3 -8 0 -27 -8
-42 -8 -15 -17 -50 -22 -77 -7 -47 -6 -49 11 -35 37 31 101 139 127 217 70
208 163 333 208 278z m-3540 -55 c0 -5 8 -7 18 -4 12 4 13 3 4 -3 -10 -8 -3
-19 30 -48 23 -22 43 -45 44 -53 2 -8 0 -11 -3 -8 -4 3 -13 0 -22 -7 -14 -11
-14 -10 -2 6 13 16 10 22 -29 62 -24 24 -47 42 -52 39 -4 -3 -8 2 -8 10 0 9 5
16 10 16 6 0 10 -4 10 -10z m1894 -19 c10 -11 20 -38 23 -60 5 -35 2 -44 -25
-71 -17 -16 -38 -30 -46 -30 -14 0 -12 8 9 47 26 51 33 93 13 93 -21 0 -83
-75 -120 -146 -73 -141 -106 -277 -73 -304 29 -24 99 24 157 109 18 25 34 39
36 32 8 -25 -32 -105 -74 -148 -57 -56 -96 -59 -148 -9 -33 31 -36 38 -36 92
l0 59 -38 -44 c-31 -35 -42 -42 -60 -37 -32 11 -42 36 -32 81 5 22 7 41 6 43
-2 1 -17 -18 -32 -43 -31 -48 -47 -55 -62 -28 -8 14 -11 13 -22 -8 -25 -47
-72 -99 -90 -99 -28 0 -45 29 -44 77 1 24 -2 40 -6 36 -3 -4 -18 -25 -34 -45
-29 -40 -69 -51 -80 -22 -19 51 11 145 60 183 32 26 54 24 69 -5 9 -17 14 -19
33 -11 39 17 49 -4 29 -60 -18 -51 -23 -118 -8 -108 17 10 101 143 113 177 17
50 27 59 50 47 17 -9 18 -13 6 -27 -18 -22 -38 -68 -38 -89 0 -9 18 9 40 40
46 64 71 82 88 65 18 -18 14 -43 -8 -63 -19 -18 -46 -92 -37 -102 3 -2 30 15
60 39 43 34 57 53 71 94 19 60 114 209 154 241 33 28 73 29 96 4z m-1797 -27
c2 -13 1 -15 -4 -4 -3 8 -11 19 -17 23 -7 6 -6 7 4 4 8 -2 16 -12 17 -23z
m310 19 c-9 -9 -70 -12 -84 -5 -6 4 11 8 39 9 28 1 48 0 45 -4z m2577 -14 c32
-25 35 -70 6 -116 -14 -23 -27 -33 -44 -33 l-25 0 24 53 c29 60 31 77 10 77
-21 0 -58 -79 -93 -200 -17 -58 -34 -114 -38 -124 -6 -17 -4 -18 17 -13 13 4
50 10 83 14 83 9 71 -15 -20 -43 -83 -25 -114 -41 -132 -66 -16 -22 -48 -24
-56 -2 -8 20 17 60 41 68 13 4 23 24 31 63 51 229 76 301 113 327 31 21 51 20
83 -5z m-2163 -23 c9 -18 6 -53 -10 -149 -12 -69 -24 -134 -28 -144 -9 -28 7
-8 80 97 97 138 102 144 122 136 12 -4 16 -13 12 -29 -13 -56 -35 -177 -41
-222 l-6 -50 55 103 c88 166 172 282 202 282 19 0 16 -27 -5 -42 -44 -31 -140
-184 -212 -335 -46 -98 -68 -115 -91 -71 -14 25 2 177 27 258 7 24 6 24 -17
-5 -31 -37 -143 -213 -152 -238 -9 -24 -36 -33 -52 -16 -14 14 -9 42 35 194
18 62 32 186 22 198 -6 7 -6 21 -1 35 11 30 46 29 60 -2z m-844 -23 c-3 -10
-5 -4 -5 12 0 17 2 24 5 18 2 -7 2 -21 0 -30z m290 31 c-3 -3 -12 -4 -19 -1
-8 3 -5 6 6 6 11 1 17 -2 13 -5z m-40 -10 c-3 -3 -12 -4 -19 -1 -8 3 -5 6 6 6
11 1 17 -2 13 -5z m190 -16 c-3 -8 -6 -5 -6 6 -1 11 2 17 5 13 3 -3 4 -12 1
-19z m2083 7 c21 -25 -3 -83 -68 -171 -33 -44 -64 -89 -70 -101 -17 -30 -28
-143 -15 -143 6 0 30 26 53 58 57 76 101 122 112 116 4 -3 8 -1 8 5 0 16 58
78 78 83 29 8 62 -9 62 -32 0 -34 -17 -57 -65 -90 -41 -28 -45 -35 -45 -70 0
-22 4 -40 9 -40 16 0 58 39 100 94 24 31 47 53 52 50 5 -3 -19 -41 -53 -85
-77 -100 -115 -113 -154 -55 -10 16 -13 33 -9 43 4 10 9 31 10 46 3 28 2 28
-18 10 -11 -10 -44 -51 -74 -91 -30 -40 -62 -76 -70 -79 -27 -10 -48 12 -53
57 l-5 43 -31 -26 c-66 -56 -111 -17 -82 72 l15 48 -33 -7 c-19 -5 -45 -22
-61 -41 -46 -55 -61 -68 -88 -75 -32 -8 -73 18 -81 52 -9 35 28 110 64 131 15
9 36 30 47 47 25 38 57 44 86 15 18 -18 20 -29 15 -65 -6 -44 -5 -44 25 -44
21 0 37 8 51 25 22 28 59 33 78 10 16 -19 24 -11 40 40 18 56 58 136 83 163
24 25 69 29 87 7z m-2313 -1 c-3 -3 -12 -4 -19 -1 -8 3 -5 6 6 6 11 1 17 -2
13 -5z m-40 -10 c-3 -3 -12 -4 -19 -1 -8 3 -5 6 6 6 11 1 17 -2 13 -5z m-180
-81 c-3 -10 -5 -4 -5 12 0 17 2 24 5 18 2 -7 2 -21 0 -30z m-227 5 c0 -16 -3
-19 -11 -11 -6 6 -8 16 -5 22 11 17 16 13 16 -11z m217 -85 c-3 -10 -5 -4 -5
12 0 17 2 24 5 18 2 -7 2 -21 0 -30z m470 -15 c-3 -8 -6 -5 -6 6 -1 11 2 17 5
13 3 -3 4 -12 1 -19z m-464 -28 c-3 -11 -12 -20 -21 -20 -13 0 -12 3 3 20 10
11 19 20 21 20 1 0 0 -9 -3 -20z m50 -17 c-7 -2 -21 -2 -30 0 -10 3 -4 5 12 5
17 0 24 -2 18 -5z m181 -4 c-3 -6 0 -16 7 -21 12 -8 11 -9 -1 -5 -8 2 -21 -3
-28 -12 -12 -14 -13 -14 -8 2 4 11 0 17 -12 17 -10 1 -5 6 13 15 38 17 37 17
29 4z m-96 -6 c-10 -2 -26 -2 -35 0 -10 3 -2 5 17 5 19 0 27 -2 18 -5z m339
-65 c-3 -7 -5 -2 -5 12 0 14 2 19 5 13 2 -7 2 -19 0 -25z m-620 3 c-9 -12 -9
-13 0 -7 7 4 20 3 30 -2 13 -8 8 -9 -18 -8 -19 2 -41 -2 -49 -8 -8 -6 -6 1 5
15 11 14 25 26 32 26 10 0 10 -3 0 -16z m333 -11 c-6 -11 -13 -20 -16 -20 -2
0 0 9 6 20 6 11 13 20 16 20 2 0 0 -9 -6 -20z m285 -40 c3 -6 -1 -7 -9 -4 -18
7 -21 14 -7 14 6 0 13 -4 16 -10z m-638 -32 c-3 -7 -5 -2 -5 12 0 14 2 19 5
13 2 -7 2 -19 0 -25z m299 -36 c0 -24 -22 -24 -23 0 -1 10 4 18 10 18 7 0 13
-8 13 -18z m-450 -51 c-39 -40 -54 -60 -45 -64 8 -3 5 -6 -8 -6 -16 -1 -20 3
-16 19 3 11 9 18 12 15 4 -2 30 18 56 45 27 28 52 50 54 50 3 0 -21 -26 -53
-59z m141 22 c-3 -10 -5 -4 -5 12 0 17 2 24 5 18 2 -7 2 -21 0 -30z m603 34
c0 -1 -47 -49 -104 -106 -76 -76 -105 -99 -109 -87 -4 9 -1 13 6 10 7 -2 55
39 107 91 88 88 100 99 100 92z m-607 -86 c3 -13 1 -18 -9 -14 -7 2 -10 11 -7
19 7 19 10 18 16 -5z m247 -5 c0 -2 -8 -10 -17 -17 -16 -13 -17 -12 -4 4 13
16 21 21 21 13z m-297 -13 c-7 -2 -19 -2 -25 0 -7 3 -2 5 12 5 14 0 19 -2 13
-5z m955 0 c-10 -2 -18 -9 -18 -14 0 -5 8 -10 18 -10 16 -1 16 -2 0 -6 -26 -6
-22 -31 5 -36 19 -4 18 -4 -5 -6 -26 -1 -28 2 -28 39 0 35 3 40 23 39 16 -1
18 -2 5 -6z m138 -25 l7 -33 14 33 c18 43 23 40 22 -10 -1 -35 -2 -38 -8 -18
l-7 25 -8 -25 -7 -25 -14 30 -13 30 -5 -30 c-3 -24 -4 -22 -6 13 -1 50 14 56
25 10z m192 10 c2 -9 -5 -19 -17 -23 -11 -3 -22 -14 -24 -23 -3 -9 -5 2 -6 26
-1 39 1 43 21 40 13 -2 24 -10 26 -20z m125 -51 c18 -4 17 -5 -5 -6 -27 -1
-28 1 -26 42 l1 42 4 -37 c3 -28 9 -38 26 -41z m159 55 c8 -29 -10 -64 -29
-60 -13 2 -19 14 -21 41 -3 33 -1 37 21 37 15 0 26 -7 29 -18z m131 -1 c3 13
8 21 11 18 3 -3 -1 -22 -8 -43 -13 -37 -14 -37 -20 -13 -3 14 -8 33 -12 44 -3
11 0 9 9 -6 l14 -23 6 23z m140 12 c-27 -5 -31 -23 -5 -23 16 -1 16 -1 0 -11
-24 -14 -22 -27 5 -32 19 -4 18 -4 -5 -6 -26 -1 -28 2 -28 39 0 37 2 40 28 39
23 -2 24 -2 5 -6z m145 0 c-10 -2 -18 -9 -18 -14 0 -5 8 -10 18 -10 16 -1 16
-2 0 -6 -10 -2 -18 -11 -18 -18 0 -7 8 -16 18 -18 13 -4 11 -5 -5 -6 -20 -1
-23 4 -23 39 0 35 3 40 23 39 16 -1 18 -2 5 -6z m267 -13 c10 -33 -4 -62 -28
-58 -22 3 -34 35 -23 64 8 21 44 17 51 -6z m128 13 c-27 -5 -31 -22 -5 -24 15
-1 15 -2 0 -6 -9 -2 -19 -14 -21 -26 -2 -12 -5 -3 -6 21 -1 40 0 42 27 41 23
-2 24 -2 5 -6z m250 0 c-7 -2 -14 -21 -15 -41 l-1 -37 -4 35 c-3 19 -10 38
-16 42 -7 4 1 7 18 7 17 0 24 -3 18 -6z m127 -23 c10 0 21 8 23 18 3 9 5 -3 4
-28 0 -25 -2 -35 -4 -22 -3 13 -12 22 -23 22 -11 0 -20 -9 -23 -22 -2 -13 -4
-3 -4 22 -1 25 1 37 4 28 2 -10 13 -18 23 -18z m153 23 c-27 -5 -31 -23 -5
-23 16 -1 16 -1 0 -11 -24 -14 -22 -27 5 -32 19 -4 18 -4 -5 -6 -26 -1 -28 2
-28 39 0 37 2 40 28 39 23 -2 24 -2 5 -6z m242 -25 c8 -18 14 -26 15 -17 0 8
7 24 15 35 13 18 14 16 13 -26 0 -27 -3 -35 -5 -20 l-5 24 -14 -24 -14 -25 -7
25 -7 25 -7 -25 c-6 -20 -7 -17 -8 18 -1 50 5 53 24 10z m197 14 c8 -29 -10
-64 -29 -60 -13 2 -19 14 -21 41 -3 33 -1 37 21 37 15 0 26 -7 29 -18z m151
-6 c3 22 4 19 6 -13 1 -49 -10 -55 -29 -15 l-13 27 -8 -30 c-6 -27 -7 -25 -7
15 l-1 45 24 -29 23 -29 5 29z m128 -18 l-6 -43 -3 35 c-2 19 -9 38 -15 42 -8
5 -4 8 8 8 18 0 20 -5 16 -42z m134 12 c7 0 16 8 18 18 3 9 5 -3 4 -28 0 -25
-2 -35 -4 -22 -2 12 -11 22 -18 22 -7 0 -16 -10 -18 -22 -2 -13 -4 -3 -4 22
-1 25 1 37 4 28 2 -10 11 -18 18 -18z m-3822 13 c-7 -2 -19 -2 -25 0 -7 3 -2
5 12 5 14 0 19 -2 13 -5z m327 -17 c0 -2 -8 -10 -17 -17 -16 -13 -17 -12 -4 4
13 16 21 21 21 13z m-46 -61 c-7 -17 -20 -20 -29 -6 -3 5 3 12 12 14 10 3 19
5 20 6 1 0 0 -6 -3 -14z"/>
<path d="M4231 804 c-21 -26 -105 -233 -98 -241 8 -8 100 103 118 142 20 43
25 110 10 120 -5 3 -19 -6 -30 -21z"/>
<path d="M3833 477 c-11 -23 -23 -58 -27 -77 l-7 -35 36 40 c37 42 51 75 41
100 -9 25 -21 17 -43 -28z"/>
<path d="M1924 465 c-14 -30 -24 -65 -22 -77 3 -18 9 -13 39 30 26 37 35 59
31 77 -7 39 -21 30 -48 -30z"/>
<path d="M3192 688 c-23 -30 -89 -188 -77 -188 10 0 96 142 101 169 7 32 -5
41 -24 19z"/>
<path d="M2800 548 c-24 -39 -23 -81 2 -86 21 -4 38 33 38 84 0 43 -14 43 -40
2z"/>
<path d="M3330 500 c-27 -53 -25 -59 10 -25 17 16 30 37 30 47 0 30 -18 20
-40 -22z"/>
<path d="M2981 444 c-27 -56 -37 -104 -23 -104 6 0 24 12 41 26 35 29 51 85
31 109 -19 23 -26 19 -49 -31z"/>
<path d="M2745 472 c-12 -12 -35 -74 -35 -93 0 -31 35 -22 70 18 31 35 32 37
14 49 -11 8 -24 18 -30 23 -7 5 -15 7 -19 3z"/>
<path d="M1720 174 c0 -9 5 -14 12 -12 18 6 21 28 4 28 -9 0 -16 -7 -16 -16z"/>
<path d="M2000 160 c0 -20 5 -30 15 -30 10 0 15 10 15 30 0 20 -5 30 -15 30
-10 0 -15 -10 -15 -30z"/>
<path d="M2680 160 c0 -25 4 -31 18 -28 11 2 17 12 17 28 0 16 -6 26 -17 28
-14 3 -18 -3 -18 -28z"/>
<path d="M3780 160 c0 -20 5 -30 15 -30 10 0 15 10 15 30 0 20 -5 30 -15 30
-10 0 -15 -10 -15 -30z"/>
</g>
</svg>
