<?xml version="1.0" standalone="no"?>
<!DOCTYPE svg PUBLIC "-//W3C//DTD SVG 20010904//EN"
 "http://www.w3.org/TR/2001/REC-SVG-20010904/DTD/svg10.dtd">
<svg version="1.0" xmlns="http://www.w3.org/2000/svg"
 width="472.000000pt" height="88.000000pt" viewBox="0 0 472.000000 88.000000"
 preserveAspectRatio="xMidYMid meet">

<g transform="translate(0.000000,88.000000) scale(0.100000,-0.100000)"
fill="#000000" stroke="none">
<path d="M0 440 l0 -440 2360 0 2360 0 0 440 0 440 -2360 0 -2360 0 0 -440z
m3786 355 c36 -56 -13 -177 -111 -270 -58 -56 -63 -64 -70 -115 l-7 -55 31 42
c57 78 115 87 123 19 l3 -28 27 21 c59 47 43 16 -32 -59 -44 -44 -86 -80 -95
-80 -31 0 -27 30 8 69 50 55 62 103 22 88 -13 -5 -50 -59 -101 -143 -11 -18
-12 -18 -34 1 -18 16 -21 27 -17 63 l5 43 -40 -60 c-46 -71 -73 -84 -101 -50
-14 18 -18 34 -14 64 5 36 4 38 -8 21 -52 -70 -93 -94 -111 -65 -13 21 -5 91
16 134 35 72 99 96 115 43 5 -14 10 -17 18 -9 14 14 44 14 52 1 4 -6 0 -29 -9
-53 -22 -63 -28 -107 -13 -107 21 0 103 133 127 205 36 111 106 250 140 279
39 33 55 33 76 1z m-1647 -71 c33 -41 28 -96 -10 -128 -27 -23 -49 -33 -49
-22 0 2 12 29 26 61 41 90 1 99 -62 14 -55 -73 -126 -240 -139 -326 -18 -112
85 -81 174 51 23 36 26 37 29 18 5 -34 -34 -106 -79 -146 -54 -50 -89 -49
-142 4 -39 40 -40 41 -34 97 l6 56 -43 -49 c-41 -46 -44 -48 -71 -36 -25 11
-27 16 -23 61 2 40 0 47 -10 38 -7 -6 -20 -23 -28 -39 -16 -31 -41 -37 -51
-13 -4 12 -12 7 -31 -22 -56 -85 -90 -104 -113 -62 -6 12 -9 41 -7 66 2 34 1
41 -7 27 -72 -124 -153 -104 -113 29 13 44 67 107 91 107 9 0 24 -11 33 -25
13 -20 19 -22 35 -12 30 19 46 -4 31 -46 -18 -50 -27 -132 -14 -123 17 10 99
131 107 158 4 12 14 35 22 51 11 23 17 26 33 17 19 -10 19 -11 1 -43 -18 -31
-36 -87 -28 -87 3 0 16 17 29 38 14 20 37 50 52 65 22 24 29 27 41 17 20 -17
19 -37 -5 -67 -19 -25 -43 -93 -35 -101 2 -2 28 16 58 39 43 35 60 56 76 99
11 30 42 89 69 131 82 125 138 157 181 103z m1081 -9 c48 -25 52 -75 9 -128
-19 -25 -59 -38 -59 -19 0 4 9 25 20 47 21 42 26 75 11 75 -20 0 -50 -54 -76
-137 -14 -49 -35 -114 -45 -147 l-18 -58 32 6 c74 16 126 19 126 7 0 -13 -24
-24 -102 -46 -33 -9 -73 -29 -93 -46 -37 -33 -65 -33 -65 0 0 20 19 44 47 59
9 6 22 44 35 103 39 191 87 299 133 299 9 0 29 -7 45 -15z m-1760 -15 c0 -5
-24 -39 -52 -75 -62 -76 -100 -141 -169 -282 -28 -57 -56 -103 -63 -103 -38 0
-46 74 -22 210 8 41 12 77 10 79 -5 6 -164 -241 -164 -255 0 -17 -40 -28 -53
-15 -8 8 -8 24 2 59 34 119 71 326 60 330 -13 5 -11 36 3 50 7 7 20 12 30 12
35 0 35 -65 2 -233 -9 -43 -14 -80 -12 -83 2 -2 37 43 76 100 88 126 106 143
126 127 12 -10 13 -18 4 -39 -10 -26 -47 -252 -41 -252 1 0 21 37 44 83 94
186 219 350 219 287z m1288 -48 c4 -38 -16 -75 -95 -178 -46 -61 -56 -81 -65
-138 -18 -106 -12 -104 105 44 24 30 48 55 54 55 7 0 22 16 35 35 44 66 110
73 116 13 2 -24 -4 -36 -31 -59 -19 -16 -42 -33 -51 -39 -23 -14 -35 -95 -14
-95 16 0 74 59 117 117 14 18 28 30 33 27 9 -6 -39 -76 -93 -135 -41 -44 -75
-51 -104 -19 -14 16 -17 30 -12 76 6 56 6 56 -15 37 -11 -10 -34 -38 -51 -63
-43 -64 -88 -110 -109 -110 -22 0 -38 29 -38 70 l0 31 -34 -26 c-67 -51 -106
-14 -79 75 7 25 13 46 13 46 0 1 -17 -3 -37 -8 -26 -7 -48 -23 -68 -50 -59
-78 -123 -88 -154 -24 -12 26 -11 34 6 75 11 26 31 54 49 66 16 10 39 33 49
50 24 36 59 43 87 18 16 -15 19 -27 16 -65 l-5 -48 32 0 c21 0 38 8 53 25 25
28 54 32 72 10 18 -22 27 -19 35 13 11 45 57 145 83 180 21 29 29 33 60 30 34
-3 37 -6 40 -36z"/>
<path d="M3732 763 c-19 -28 -35 -66 -78 -183 l-24 -65 56 59 c65 69 84 107
84 171 0 52 -11 57 -38 18z"/>
<path d="M3352 468 c-17 -22 -42 -89 -42 -116 0 -23 3 -21 35 21 22 29 35 57
35 76 0 33 -11 39 -28 19z"/>
<path d="M1429 436 c-20 -47 -35 -106 -26 -106 3 0 22 22 42 49 28 38 34 55
29 75 -9 38 -22 32 -45 -18z"/>
<path d="M2685 634 c-20 -31 -68 -155 -61 -161 5 -5 56 67 80 114 30 60 15 99
-19 47z"/>
<path d="M2317 526 c-37 -38 -46 -106 -13 -106 19 0 31 23 40 72 7 40 -5 56
-27 34z"/>
<path d="M2842 479 c-7 -11 -18 -32 -23 -47 l-10 -27 30 29 c17 17 31 38 31
48 0 24 -12 23 -28 -3z"/>
<path d="M2502 437 c-14 -16 -37 -72 -46 -109 -9 -39 12 -36 52 5 22 23 32 43
32 64 0 37 -22 60 -38 40z"/>
<path d="M2230 399 c-11 -24 -20 -52 -20 -61 0 -30 36 -21 69 17 33 38 39 55
19 55 -6 0 -20 7 -30 16 -17 16 -19 14 -38 -27z"/>
</g>
</svg>
