<svg version="1.2" xmlns="http://www.w3.org/2000/svg" viewBox="0 0 472 88" width="472" height="88">
	<title>template</title>
	<style>
		.s0 { fill: #ffffff } 
	</style>
	<path id="WanCodeLab" class="s0" aria-label="WanCodeLab"  d="m112.1 64.9q-1.2 0-2.2-0.8-0.9-0.9-1.4-2.1-0.5-1.3-0.5-2.5 0-0.8 0.4-2.2 0.5-1.4 1-2.9 0.6-1.5 1-2.6l-0.3-0.3q0.7-0.7 0.9-1.4l0.6-1.6h0.1q0.1 0 0.2 0 0.1-0.1 0.2-0.1 0.1 0 0 0.1l0.9-0.5q0.2-0.4 0.2-0.4 0-0.2-0.2-0.6-0.1-0.1-0.1-0.4 0-0.5 0.5-1.4 0.7-0.9 1-1.5l0.1-1.3q0.1-0.1 0.6-1 0.5-0.9 1-1.8 0.5-0.9 0.6-1.3v-0.3l0.1-0.6q0.1-0.1 0.5-0.5 0.4-0.5 0.4-0.6 0-0.1-0.1-0.3-0.1-0.2-0.1-0.3 0-0.1 0.1-0.1l0.1-0.1q0.1-0.1 0.6-0.9 0.4-0.9 1-1.9 0.5-1 1-1.8 0.4-0.8 0.5-0.8 0.2-1.1 0.7-2 0.6-1.1 1.1-2.1 0.4-1 0.4-2 0-1.2-0.6-1.6-0.5-0.5-1.6-0.5-1.7 0-4.2 0.9-2.4 0.8-5.1 2.2-2.7 1.4-5 2.8-2.4 1.3-3.7 2.4l-1.2 0.9q-0.3 0.2-0.6 0.5-0.3 0.2-0.6 0.5l-0.7 0.5q-0.2 0.1-0.4 0.3-0.2 0.1-0.3 0.2h0.3q-0.2 0.3-0.8 0.7-0.6 0.4-1.3 0.8-0.7 0.2-1.1 0.4l0.1 0.3h0.1v0.2l0.6-0.3v0.4h-0.4l-1.3 1.7-1.4 1.7h-0.1v0.4q0.1-0.1 0.2-0.1 0.2 0 0.3 0 0.2 0 0.2 0.2-0.7 0.4-1.1 1.3-0.3 0.8-0.3 1.6 0 0.7 0.3 1.2 0.3 0.5 1 0.4v0.1h-0.4q-0.8 0-1.7-0.4-0.8-0.4-0.9-1.3 0.1-0.2 0.3-0.3l0.2-0.1q-0.4-0.5-0.4-0.9 0-0.2 0.2-0.2l0.2 0.5h0.2q-0.2-0.3-0.3-0.7-0.1-0.4-0.1-0.7 0-0.1 0.1-0.2v-0.2l0.4-0.1q0.4 0 0.3-0.3h0.3l-0.2-0.2v-0.2q0-0.2 0.2-0.2v-0.2l-0.2 0.1v0.2l-0.3 0.4h-0.2v-0.3l0.1-0.1 0.8-0.6-0.2-1.3 0.2-0.2h0.4l0.4 0.3 1.5-1.8v-0.4q-0.2 0.1-0.4 0.1-0.1 0-0.2 0-0.3 0-0.3-0.1l0.2-0.1v-0.2q0.4-0.4 0.9-0.8 0.5-0.4 0.9-0.8 0.5-0.5 1-0.9 0.4-0.4 0.9-0.8 0.3-0.3 0.6-0.6 0.4-0.4 0.8-0.6l0.2-0.1q0 0 0.1-0.1 0-0.1 0.1-0.1h0.2v-0.2q0.4-0.7 1.4-0.9 0.1-0.3 0.2-0.4 0-0.3 0.1-0.5 0.2-0.1 1.1-0.6 1-0.5 1.9-1 0.9-0.6 0.9-0.9l0.2 0.2 0.7 0.2v-0.3q-0.1-0.2-0.1-0.2h0.1q0.2 0 0.4-0.4 0.2-0.2 0.5-0.2v0.1l1.3-1q0.8-0.6 1.5-0.6 0.2-0.2 0.7-0.5 0.6-0.2 0.6-0.3 0-0.1-0.1-0.1h0.6q0.6-0.5 1.3-0.9 0.8-0.3 1.5-0.4 0.7-0.5 1.4-0.7 0.8-0.1 1.5-0.3v-0.1q0.4-0.2 0.6-0.2 0.3-0.1 0.7-0.1 1.9 0 3.8 0.8 1.8 0.8 2.7 2.7l0.4 0.8q-0.1 0.1-0.1 0.2 0 0.1 0 0.2v0.5q0 0.4 0 0.8 0 0.4 0.1 0.8 0.1 0.4 0.1 0.8 0 0.4 0 0.8 0 0.5 0 0.6-0.4 0.4-0.7 1.3-0.4 0.9-0.8 0.9l-0.4 1.4q-0.4 0.4-0.5 1.1-0.1 0.6-0.3 1.2-0.1 0.5-0.8 0.5v0.2q0.4 0.1 0.4 0.4v0.1q-0.1 0.1-0.2 0.2-0.1 0-0.2 0.2-0.4 0.2-0.4 0.3 0 0.1 0.1 0.1l-0.4 0.1-1.1 2-0.3-0.3q-0.4 1.2-1 2.1l-0.1 0.7-1 1.3-0.1 1.5q-0.8 0.9-1.1 1.5-0.3 0.6-0.5 1.2-0.1 0.6-0.5 1.8-0.5 1.3-1 2.4-0.5 1-1.5 2-0.2-0.1-0.2 0.2l0.5 1.1q-0.7 1.1-1.2 2.6-0.5 1.5-0.5 2.7 0 1 0.2 2 0 0.5 0 1 0.1 0.5 0 1 0.7 0 1.7-0.6 1.1-0.5 2.2-1.3 1.1-0.8 1.9-1.6 0.9-0.8 1-1.4l0.3 0.2q0.1-0.4 0.4-0.8l0.6-0.6q0.1-0.3 0.3-0.4 0.1-0.2 0.4-0.4 0.4-0.4 0.6-0.8l0.7-0.9q0 0 0-0.1v-0.1h0.1l0.5-0.5v0.1q0.1-0.1 0.2-0.3 0.2-0.2 0.3-0.3 0.1-0.2 0.4-0.5 0.2-0.3 0.1-0.2v0.1-0.2h0.1q0.2-0.2 0.3-0.4 0.2-0.2 0.3-0.4l0.6-0.7q0.1-0.1 0.2 0 0.2-0.5 0.7-1 0.6-0.7 0.8-1.1h0.1q0.5-0.5 1.1-1.3 0.6-0.9 1.2-1 0.4-0.4 0.9-0.8 0.5-0.4 0.9-0.8l0.1-0.2q0.2-0.1 0.4-0.3 0.2-0.2 0.4-0.4h0.1q0.3-0.2 0.4-0.4 0.2-0.2 0.4-0.3l-0.1-0.1h0.1 0.1l1.9-4.1v-0.2l-0.5 0.1v-0.2h0.1q0.1-0.1 0.5-0.7 0.4-0.8 0.9-1.7 0.5-1 1-1.7 0.4-0.7 0.5-0.7 0-0.1 0.3-0.7 0.2-0.7 0.6-1.5 0.5-0.8 0.9-1.4 0.5-0.7 0.7-0.8l-0.1-0.6 0.8-0.6v-0.2q-0.1 0-0.4 0.1-0.1 0-0.4 0.1v-0.2h0.1l1.6-2.2q0.6-0.7 0.7-1.5 0.3-0.8 0.5-1.3 0.3-0.7 1.1-0.8l0.1-0.2h0.1v-0.1q1.2 0 2.2 0.4 1.1 0.4 2 1.1 0.1 0.1 0.3 0.2 0.2 0.1 0.3 0.2 0.4 0.3 0.5 0.7 0.1 0.1 0.1 0.2 0.1 0.1 0.1 0.2v0.9q0 0.5-0.3 1-0.2 0.5-0.5 0.8-0.4 0.4-0.7 0.8-0.4 0.4-0.6 0.8-0.2 0.3-0.6 0.9-0.5 0.6-0.7 0.6-0.8 1.1-1.8 2.3-0.9 1-2 1.9h-0.1q-0.7 0.9-1.5 1.6l-0.4 1.6-0.4 0.3q-0.1 0.1-0.4 0.4-0.1 0.1-0.5 0.9-0.3 0.8-0.7 1.6-0.4 0.7-0.6 0.8 0.4-1.1 0.9-2.1 0.4-1 0.9-2h0.1l-0.1-0.2-0.6 0.5-0.6 0.6q-0.4 0.7-0.4 1.5l-0.3-0.1v0.1q0.1 0.1 0.1 0.3 0 0.1-0.2 0.9-0.2 0.7-0.5 1.4-0.2 0.7-0.5 0.7v0.4q0 0.3 0.1 0.4 0 0.2-0.2 0.9-0.3 0.6-0.3 0.8h-0.1l-0.2-0.1q0 0.2 0 0.2v0.3q-0.1 0.4-0.8 0.7 0.1 0.2 0.1 0.4 0.1 0.2 0.1 0.3 0 0.6-0.2 1.1l-0.4 1q-0.5 1.8-1 4-0.5 2.2-0.5 4 0 0.9 0.2 1.9 0.2 1 0.7 1.7 0.6 0.7 1.6 0.7 1.2 0 2.8-0.9 1.7-1 3.5-2.5 1.8-1.5 3.5-3.1 1.8-1.7 3.2-3.2 1.4-1.5 2.2-2.5 0.1-0.1 0.3-0.5 0.2-0.5 0.2-0.6 0-0.1-0.1-0.1-0.2 0-1 0.8-0.8 0.8-1.8 1.8-0.9 1.1-1.6 1.9-0.8 0.8-0.9 0.8v-0.1q0-0.1 0.1-0.3 0.1-0.3 0.2-0.4 0.1-0.4 0.6-0.9 0.3-0.2 0.5-0.4 0.2-0.2 0.3-0.3 1.1-1.2 2.3-2.4 1.2-1.3 2.1-2.6l2.8-4.3q0-0.4 0.3-1.2 0.3-0.8 0.7-1.4 0.4-0.8 0.8-0.9 0.1 0 0.3-0.5 0.2-0.5 0.4-1 0.2-0.5 0.2-0.5 0.1 0.1 0.1 0.3 0 0.2 0 0.3v0.2q0 0 0.1 0 0 0 0 0 0.3-0.5 0.3-1.1-0.1-0.3-0.1-0.6 0-0.3 0-0.6 0-0.4 0.6-0.6 0.4-0.2 0.7-0.6 0.2-0.3 0.5-1 0.3-0.7 0.4-1.4 0.3-0.8 0.3-1v-0.1q0-0.2 0.5-0.5 0.5-0.3 0.5-0.6 0-0.3-0.3-0.4-0.3-0.1-0.3-0.3h0.1q0-0.3 0-0.4 0.1-0.2 0.1-0.3-0.1-0.1-0.1-0.2 0-0.3 0.2-0.5 0.2-0.3 0.2-0.7 0-0.3-0.1-0.4-0.1-0.1-0.1-0.4 0-0.3 0.3-0.5 0-0.3 0-0.6 0.1-0.4 0.1-0.6-0.4-0.4-0.4-1.1 0-0.3 0-0.5 0.1-0.3 0.2-0.5 0-0.2 0-0.5 0-0.2 0-0.4 0-0.6-0.4-0.9-0.5-0.2-0.5-0.4 0-0.5 0.3-0.9 0-0.2-0.4-0.5-0.3-0.2-0.2-0.6-0.3-0.1-0.5-0.5-0.2-0.3-0.2-0.6 0-0.6 0.7-0.6 0.3 0 0.5 0.1 0.3 0.2 0.4 0.3 1.3 1.5 2.1 3.2 0.8 1.6 0.8 3.6 0 1.3-0.1 2.5-0.1 1.1-0.4 2.3 0.1 0 0.1 0.1 0 0.5-0.4 1.2-0.4 0.6-0.4 1 0 0.2 0 0.4 0.1 0.2 0.2 0.4 0 0.2 0 0.4 0.1 0.2 0.1 0.4 0 0.2-0.1 0.3-0.2 0.1-0.4 0.4-0.2 0.3-0.3 0.5 0.1 0 0.1 0 0.1-0.1 0.2-0.1-0.3 0.4-0.5 1.2-0.2 0.7-0.2 0.9v0.1q0 0 0.1 0l0.1-0.1-0.5 1.6q0 0.1 0 0.5 0 1.2-0.9 1.7l-1.2 2.8q-0.6 1.4-1.6 2.7-0.1 0.1-0.2 0.3-0.2 0.1-0.3 0.2l-0.6 0.6-0.2 0.2q0 0.1-0.2 0.3 0 0.2-0.1 0.5 0 0.1-0.2 0.3 0 0.1 0.1 0.1v0.1q0 0.3-0.3 0.4-0.3 0.1-0.6 0l-0.5 0.7q0.1 0.1 0.1 0.3 0 0.1 0 0.2 0 0.7-0.3 0.6h-0.6-0.1q0 1.1-1.1 1.3l-0.5 0.6q-0.1 0.4-0.4 0.5-1.4 1.6-2.8 3.2-1.5 1.5-3 3-0.7 0.8-2.1 1.8-1.4 1-3 1.8-1.7 0.9-3.2 1.4-1.6 0.6-2.7 0.6-3.1 0-4.5-2-1.3-2-1.3-5 0-2.2 0.6-4.3 0.7-2.3 1.5-4.3l-0.6-0.1 0.1-0.1q0.1-0.1 0.1-0.2 0-0.2 0-0.3 0-0.3 0.1-0.5l0.1-0.1v0.3h0.1l-0.1-1 0.7-0.1v-0.1l-0.2-0.4h0.1l0.6-1.3q-0.2 0.2-0.4 0.3-0.2 0.2-0.4 0.4l-0.9 1 0.1-0.3h-0.4l-0.1 0.3h-0.2l-0.1 0.3 0.2-0.2h0.4q-0.1 0.1-0.3 0.4-0.2 0.3-0.3 0.4l-0.1-0.1-0.1 0.2q-0.2 0.4-0.6 0.7-0.3 0.3-0.7 0.6l-1.5 1.2v0.5l-0.2 0.2h-0.4l-0.1 0.2 0.1 0.2-0.3 0.1q-0.1 0.1-0.1 0.2-0.1 0.1-0.1 0.2-0.3 0.2-0.3 0.4-0.1 0.1-0.5 0.6-0.4 0.4-0.7 0.8-0.3 0.4-0.4 0.5h0.1l0.2 0.5h-0.2v0.2l-0.2 0.1v-0.3h-0.3l-0.1 0.2q-0.6 0.5-1.2 1.1-0.5 0.6-1.1 1.2l-0.1 0.9q-0.2 0.1-0.4-0.2h-0.1q0.1 0.4 0.1 0.4 0 0.2-0.1 0.3-0.6 0.3-0.9 0.8-0.2 0.5-0.3 1.1h-0.7l-1.7 2.6h-0.2l-0.1-0.7q-0.7 1.3-1.2 1.9-0.6 0.6-1.4 0.9-0.8 0.1-2.3 0.1zm13.4-39.7l0.3-0.4h-0.1q-0.1 0.1-0.2 0.3-0.1 0.1 0 0.1zm15.4 11l1-0.9q0.8-0.7 1-0.7 0.1-0.3 0.7-1.1 0.7-0.8 1.5-1.7 0.8-1.1 1.4-1.8 0.7-0.7 0.9-0.9-0.1 0-0.1-0.1 0 0 0.2-0.4 0.1-0.4 0.3-0.8 0.2-0.4 0.2-0.5-0.7 0.5-1.7 1.2-1 0.6-1.9 1.3-0.9 0.7-1.2 1.3-0.5 0.8-0.9 1.6-0.3 0.7-0.6 1.6v-0.1 0.1q-0.2 0.5-0.4 0.9-0.3 0.5-0.4 1zm-17-4.3l-0.2 0.3h0.2l0.1-0.3zm-26.1 1.4l-0.1 0.3q0.2-0.2 0.3-0.3-0.1 0-0.2 0zm25.2 0.7h0.1v-0.2l0.6-0.5h-0.3l-0.1 0.2h-0.2q-0.1 0-0.1 0.1 0 0.1 0 0.2v0.1q0 0.1 0 0.1zm40.1-0.5l-0.3 0.3q0.1-0.3 0.2-0.3 0.1 0 0.1 0zm-67.5 2.4v0.2q0.1-0.1 0.1-0.1 0-0.1 0-0.1 0-0.1 0.1-0.2h-0.2q0 0.1-0.2 0.1v0.1zm44.1 1.4l0.3-0.3h-0.1q-0.1 0.1-0.2 0.3zm-46.4 0.7h0.1q0.2 0 0.3-0.1-0.1 0-0.1-0.1 0.4 0 0.4-0.1v-0.2q0 0 0-0.1h-0.2v0.2q-0.2 0-0.3 0.1-0.2 0.1-0.2 0.3zm-0.8 3.6h0.1l-0.2-0.2-0.2-0.2q0-0.1 0.1 0.3 0.1 0.1 0.2 0.1zm79.1 24.3l-1.6 0.2q-0.6-0.6-1.2-1-0.6-0.4-1.1-0.8-0.4-0.6-0.4-1.4h0.2l-0.2-0.9-0.2 0.2-0.1 0.2q0.1-0.3 0.1-0.4 0.1-0.2 0.1-0.4 0.1-0.3 0.1-0.5 0-0.3 0-0.6 0-0.7 0.2-1.4 0.1-0.8 0.2-1.5 0.2-0.6 0.3-1.3 0.2-0.8 0.3-1.6h0.1l0.7-1.4-0.1-0.3q-0.1 0.2-0.2 0.3 0 0.1-0.1 0.2-0.7 0.9-1.6 2.2-0.9 1.3-1.8 2.4-0.9 1.1-1.7 1.5-0.4 0.3-0.6 0.5-0.2 0.1-0.4 0.7-0.6 0.1-1.1 0.7-0.5 0.6-1 1.2-0.6 0.6-1.2 0.6v0.3q-0.4 0.4-1 0.5-0.5 0.2-1 0.2-1.2-0.4-2.4-1.2-1.2-0.8-1.2-2.3 0-0.5 0.1-0.9h0.1v-0.3q-0.1-0.2-0.1-0.5 0.1-0.3 0.2-0.3l0.1 0.1q0.1-0.2 0.1-0.6 0-0.4 0-0.5l0.2-0.1q0-0.4 0.4-0.9 0.3-0.4 0.7-0.8 0.4-0.4 0.4-0.6 0 0 0-0.1 0-0.3 0-0.5-0.1-0.2-0.1-0.4v-0.2h0.3l0.1-0.3v-0.1q-0.1-0.1-0.1-0.2v-0.1q0-0.2 0.1-0.3l0.1-0.2q0-0.1 0.1-0.1v-0.2l0.3-0.2q0.2-0.3 0.3-0.3 0.5-0.7 0.8-1.2h0.2l0.1 0.1q-0.1-0.1-0.2-0.2 0 0 0-0.1 0-0.4 0.8-1.3 0.8-0.9 1.9-1.8 1-1.1 2.1-1.9 1-0.9 1.6-1.4v-0.3h0.1q0.2-0.1 0.4-0.4 0.3-0.2 0.6-0.4 0.6-0.6 1-0.6l0.1-0.3 0.3-0.1q0.1 0 0.1-0.1 0.1-0.1 0.2-0.1 0.1-0.1 0.1-0.1 0.1 0 0.1 0l0.1-0.1h0.1v-0.1q0 0 0 0 0-0.1 0.1-0.1l1-0.4h0.1l0.8-0.3 0.2-0.2h0.8l0.4-0.3 0.1-0.1v0.1l0.1-0.1 0.1 0.1q0.5-0.2 1-0.2 0.5 0 1.4 0.2 0.8 0.2 1.6 0.6 0.7 0.3 0.8 0.9v0.1l-1.2 0.7q0.1-0.3 0.2-0.3v-0.1q0-0.1-0.2-0.1h-0.4q-1.2 0-2.2 0.7-1 0.7-1.9 1.4-0.5 0.1-1.1 0.6-0.5 0.6-1 0.9-2.2 1.7-4 3.4-1.8 1.7-3.4 4-0.3 0.5-0.7 1.2-0.5 0.7-0.8 1-0.3 0.5-0.6 1-0.3 0.5-0.5 1.1-0.3 0.6-0.5 1.1-0.3 0.5-0.6 0.9 0 0.7-0.2 1.4-0.1 0.3-0.1 0.5-0.1 0.2-0.1 0.4 0 0.1 0 0.2l0.2 0.6q0.7-0.3 1.7-0.8 0.9-0.4 0.9-1 0.4-0.1 0.4-0.1h0.1v-0.1q0.1-0.1 0.2-0.1h0.1l0.2-0.3v-0.3l0.2 0.3 0.8-0.8q0-0.3 0.4-0.3 0.9-0.8 1.7-1.9 0.4-0.6 0.8-1.1 0.4-0.5 0.8-0.9h0.2l0.7-1-0.1-0.2 0.8-1h0.1q0.2-0.4 0.4-0.7l0.2 0.1 0.4-0.6v-0.1q0.2-0.4 0.6-0.9 0.3-0.4 0.7-0.8 0.3-0.5 0.6-0.9 0.3-0.5 0.6-1 0-0.4 0.3-0.7 0.3-0.3 0.8-0.3l0.4 0.1q0.2-0.4 0.2-1.3 0.3 0.1 0.4-0.1 0 0 0.4-0.1v0.1l0.4 0.2q0.3-0.1 0.4-0.1 0.4 0 0.9 0.2 0.4 0.3 0.8 0.6 0 0.1 0 0 0 0 0.1 0h0.3q0.7 0 0.7 0.6v0.2q-0.3 0.4-0.5 0.8-0.3 0.4-0.5 0.8-0.5 0.8-1.3 1.4v0.1l-0.9 1.3 0.1 0.2-1.9 2.4-0.2 0.1q-0.1 0.4-0.2 0.8-0.2 0.3-0.3 0.7l-0.5 0.2q0.1 0.1 0.1 0.3 0 0.2 0 0.3-0.4 0.8-0.8 1.7-0.3 0.8-0.1 1.8-0.2 0.1-0.3 0.3 0 0.2 0 0.4 0 0.3 0 0.6 0.1 0.2 0.1 0.5 0.1 0.2 0.2 0.5 0 0.3 0.1 0.6l0.6-0.3h0.2v-0.1l0.1-0.2q0-0.1 0.2-0.4l0.1 0.5 0.5-0.2v0.2h0.1q0.2 0 0.3-0.4 0.2-0.1 0.3-0.2 0.2-0.2 0.4-0.2l0.1-0.1v-0.1q0-0.3 0.4-0.5 0.2 0 0.3-0.1 0.2-0.1 0.3-0.1h0.1l1.4-1.5h0.1q0.1-0.2 0.5-0.5 0.4-0.3 0.6-0.4v-0.4l0.4-0.1h0.1l1.3-1.9q0 0.1 0.1 0.1 0.1 0 0.2 0.1 0 0 0.2-0.2 0.1-0.2 0.1-0.3 0.1-0.1 0.1-0.2 0.2-0.1 0.4-0.1 0.2-0.1 0.3-0.1 0.1-0.1 0.1-0.2-0.6 1.2-1.1 2.2-0.4 1-0.9 1.9-0.5 1-1 1.9-0.6 0.9-1.5 1.7l-0.2-0.2 0.4-0.5v-0.4l-0.2 0.1v0.2l-0.4 0.4q0 0.8-0.5 1.1h-0.2-0.1v0.2l-0.4 0.4h-0.1l-0.7 1v-0.2h-0.1q-0.1 0.1-0.3 0.2-0.1 0-0.2 0.1-0.3 0.1-0.4 0.3zm4-4.4l0.1 0.1q0-0.1 0-0.2l0.1-0.2-0.2 0.1h0.1l-0.2 0.3zm0.7 3.8h-0.2q0-0.1-0.2-0.1 0 0-0.2 0 0-0.1-0.2-0.1-0.1-0.1-0.2-0.2h0.4q0.1-0.1 0.2-0.1 0.2-0.1 0.3-0.1 0.3-0.3 0.5-0.3 0.3-0.2 0.6-0.8 0.3-0.7 0.6-1.4 0.3-0.8 0.5-1.2l0.2-0.7q0-0.3 0.1-0.6 0.1-0.7 0.3-1.2 0.3-0.6 0.6-1.2 0 0 0.1-0.6 0-0.4 0.1-0.5-0.1 0-0.1-0.1h-0.1q-0.1 0-0.1 0 0-0.1 0-0.1v-0.1l0.5-0.9q0.2-0.4 0.7-0.5 0.1-0.5 0.6-1.3 0.5-0.9 0.5-1.2 0-0.5-0.2-0.9-0.2-0.3-0.2-0.8 0-0.1 0-0.2 0.1-0.1 0.1-0.2 0.1-0.2 0.1-0.3 0-0.1 0-0.3 0.1-0.1 0.2-0.6 0.1-0.5 0.2-1 0.2-0.6 0.2-0.8 0.2-1.3 0.6-1.8l-0.1-0.1q0.3-0.3 0.5-0.8 0.3-0.4 0.3-0.9 0-0.2 0-0.3-0.1-0.2-0.1-0.3 0-0.3 0.2-0.5 0.2-0.2 0.4-0.3-0.4-0.1-0.5-0.3-0.1-0.1-0.4-0.1v-0.3q0 0 0 0.1 0 0.1-0.1 0.1 0.1 0 0 0h-0.2q-0.1-0.1-0.2-0.1 0 0-0.2-0.1-0.1 0-0.2 0-0.1 0-0.2-0.1-0.2 0-0.2-0.3 0-0.1 0.2-0.2 0.3-0.2 0.4-0.2 0.9 0.2 2.1 0.5 1.2 0.3 2.3 0.7 1.2 0.4 1.5 0.9 0.1 0.2 0.1 0.4 0.1 0.2 0.1 0.3 0 0.6-0.3 1.2l-0.5 1.2q-0.2 0.3-0.2 0.5 0 0.2-0.4 0.7-0.3 0.4-0.6 0.5 0 0 0 0.1 0 0 0 0 0 0.1 0.1 0.2 0.2 0 0.1 0.1 0.1 0.2 0.1 0.4 0 0.2-0.1 0.4 0 0.2-0.3 0.2 0 0.1 0 0.1-0.1 0.3-0.1 0.4v0.1q0 0.6-0.4 0.7-0.1 0.4-0.4 1-0.4 0.8-0.6 1.2 0 0.2-0.1 0.2l-0.1 0.1q0 0.2-0.3 0.4 0 0.1-0.1 0.3-0.1 0-0.2 0.1-0.1 0.2-0.2 0.4-0.1 0.1 0 0.4v0.1q0 0.2-0.1 0.2-0.1 0.2-0.3 0.4-0.2 0.2-0.5 0.4l-1.9 4.4q0 0.2-0.3 0.3l0.3 0.4h-0.4l0.2 0.2h-0.3v0.1h-0.2q0 0-0.2 0v0.4h0.1l-0.3 0.4v0.1h-0.2q-0.2 0.1-0.2 0.1-0.1 0.1-0.1 0.2 0 0.4 0 0.4 0.3-0.2 0.8-0.8 0.5-0.7 1.1-1.4 0.6-0.8 1-1.4 0.4-0.7 0.3-0.9 0.3 0 0.5-0.6 0.2-0.1 0.3-0.3 0.1-0.1 0.3-0.3 1.1-0.9 2-2 0.9-1.1 1.8-2.3 0.9-1.1 1.9-2.2 0.9-1.2 2.2-2.3 1-0.8 2.2-1.7 1.3-1.1 2.5-1.8 1.3-0.7 2.2-0.7 0.7 0 0.7 0.7 0 0.3 0 0.7-0.1 0.3-0.2 0.6-0.4 1-0.8 2-0.5 1-0.9 2-0.4 0.9-0.7 1.6-0.2 0.9-0.6 1.7-0.2 0.1-0.3 0.2 0 0.1-0.1 0.2 0 0 0 0.2 0 0.1-0.1 0.3l0.4-0.1q-0.4 0.9-0.7 1.7-0.2 0.8-0.2 1.6 0 0.2-0.1 0.3v0.1q-0.3 0-0.4-0.1-0.1 0-0.2 0.1 0 0.1 0 0.2-0.1 0.1-0.1 0.2 0 0.1-0.1 0.1l0.4-0.1q0 0.5-0.1 0.9-0.1 0.2-0.1 0.4 0 0.1 0 0.4 0 0.8 0.3 1.3 0.4 0.5 1.2 0.5 0.2 0 0.3-0.1h0.1q0.3-0.1 0.7-0.2 0.4-0.3 0.8-0.6 0.4-0.2 0.8-0.5 0.4-0.3 0.8-1.1-0.3 1-0.4 1.3-0.1 0.2-0.9 0.9-0.8 0.6-2 1.4-1.2 0.8-2.3 0.8-1 0-1.7-0.6-0.6-0.6-1-1.4l-0.2-0.2q-0.3-0.2-0.3-0.4 0-0.2 0.1-0.2v-0.1l0.3-0.1 0.1-0.1q-0.1-0.1-0.1-0.2 0-0.1 0-0.3v-0.4q0-1.1 0.2-2.2 0.2-1.2 0.5-2.3 0.1-1 0.5-1.6l0.2-0.2h-0.3l0.1-0.2-0.1-0.5q0.1-0.3 0.4-1.1 0.3-0.8 0.6-1.6 0.3-0.8 0.3-0.9-0.2 0-0.4 0.2-1.5 1.1-2.6 2.6-0.6 0.8-1.2 1.6-0.6 0.7-1.2 1.5-1.3 1.4-2.7 2.8-0.8 0.7-1.4 1.4-0.6 0.7-1.2 1.5l-1.7 2.3q-0.9 1.1-1.9 2.2-0.7 0.6-1.3 0.6-0.4 0-0.8 0-0.3 0.1-0.7 0.1zm6.9-10.9q0.2-0.3 0.4-0.3l-0.2-0.2q0 0.1-0.1 0.3-0.1 0.1-0.1 0.2zm29.9 13.4v-0.2h0.2v-0.2q0-0.2-0.2-0.2l-1.8 0.2q-0.1-0.1-0.3-0.2-0.2-0.1-0.3-0.2-0.3-0.1-0.4-0.2-0.2-0.1-0.4-0.2l0.2-0.4h-0.2q-0.4 0-0.8 0-0.3 0-0.7 0-0.4-0.1-0.8-0.1-0.3 0-0.7-0.1v-0.1h0.2v-0.3q0.1 0 0.4 0 0.1-0.1 0.1-0.3l-0.1-0.2-1.8-0.1q-0.2-0.3-0.9-0.8-0.6-0.4-0.7-0.7l0.2-0.3q-1.9-1.3-3-3.6-1.1-2.4-1.5-4.6-0.1-0.1-0.1-0.2 0-0.2 0-0.3-0.2-0.4-0.2-0.6 0-0.2 0.2-0.2 0 0 0 0 0.1 0.1 0.1 0.1v-0.1h0.3q-0.4-0.7-0.6-1.6-0.1-0.9-0.1-1.7v-0.5q0-0.4 0.1-0.5l0.3-3.2q0.4-0.4 0.7-0.7 0.3-0.4 0.6-0.8 0-0.2 0.5-1 0.5-0.9 1.2-1.8 0.7-1.1 1.3-1.8 0.7-0.7 1-0.7v-0.3q0-0.2 0.2-0.1 0.2 0.1 0.2-0.1 0.3 0.1 0.3-0.2 0-0.2 0.1-0.1h0.1v-0.3q1.1-2.5 3.2-4.6 2.1-2.1 4.7-3.7 2.6-1.8 5-2.8 0.1-0.4 0.1-0.4 0-0.1 0.3-0.2 0.2-0.1 0.6-0.3 0.3-0.2 0.7-0.3l1.2-0.5q2.1-1.1 3.7-2 1.6-0.9 3.3-1.5 1.7-0.6 3.9-0.7 0.4-0.1 0.8-0.1 0.3-0.1 0.6-0.1 0.4-0.1 0.7-0.2 0.4-0.1 0.8-0.1 0.8 0.2 1.7 1.1 1.1 0.9 1.7 2 0.8 1 0.8 1.8 0 1-0.7 1.4-0.3 0.1-1.4 0.5-1.1 0.4-2.2 0.8-1.1 0.3-1.7 0.5-0.5 0.2-1.2 0.4-0.7 0.3-1.5 0.5-3.5 1.2-7.6 3.2-1.7 0.8-3.4 1.9-1.6 1.1-2.7 2.4-1.1 1.2-1.1 2.6h-0.2q0.3-2.2 1.5-3.8 1.2-1.6 3.1-2.8 1.9-1.2 4-2 2.1-0.9 4.1-1.6 0.9-0.4 1.9-0.9 0.9-0.4 1.8-0.9 1-0.4 1.9-0.8 1-0.5 2-0.8 0.1 0 0.1 0 0.1 0 0.3-0.1 0.1-0.1 0.1-0.3h0.3v-0.2q-0.2 0-0.5-0.1-0.2-0.1-0.3-0.4-0.3 0.1-0.6 0.1-0.3 0.1-0.6 0.2-0.5 0.1-1.2 0.1-0.1 0-0.4 0-0.2 0-0.2-0.2-0.1-0.1-0.3-0.1-0.4 0-1.9 0.4-1.5 0.3-3.2 0.8-1.8 0.5-3.2 1-1.4 0.4-1.8 0.6l-3.9 2.6q0.2 0 0.3 0.1 0.3 0 0.3 0.2-0.3 0-1.2 0.3-0.9 0.3-1.6 0.7-0.8 0.4-0.8 0.6l0.4-0.1q0.1 0 0.1 0.1h0.2v0.2h-0.2v0.2q-0.1 0-0.9 0.7-0.7 0.6-1.7 1.5-1 0.9-2 1.9-0.9 0.9-1.6 1.6-0.7 0.8-0.7 1l-0.1-0.2q-0.7 0.6-1.2 1.3-0.5 0.8-0.9 1.7-0.4 0.9-0.8 1.8-0.4 0.9-0.8 1.7-0.8 2-1.3 4.1-0.6 2.1-0.6 4.3 0 4.7 2.5 7.5 2.5 2.9 7.5 2.9v-0.2q0.2-0.3 0.7-0.3 0.2 0 0.2 0.1h0.1v-0.3h0.2v0.2l0.8-0.2 0.8 0.3v-0.1q0.1-0.1 0.6-0.4 0.6-0.3 1.2-0.4 0.5-0.3 0.7-0.1 0.2-0.2 0.4-0.4 0.1-0.2 0.3-0.3 0.2-0.3 0.3-0.4 0.2-0.2 0.4-0.4l0.6-0.1v0.5h0.3v-0.2h-0.2q0.3-0.1 0.5-0.3h0.2q0.1-0.1 1-0.9 0.9-0.8 2.1-1.8 1.2-1 2.3-1.7 1-0.8 1.3-0.8l-0.1-0.1q0.5-0.6 1.6-1.5 1.1-0.9 2-1.8 0.9-0.9 0.9-1.5h0.4v0.2q0 0.2-0.2 0.2l-0.7 1.9-0.5 0.5-0.6 0.5q-0.4 0.5-0.8 1-0.2 0.3-0.4 0.6-0.2 0.2-0.4 0.5-1 1.2-2.5 2.8-1.5 1.5-3.2 2.8-1.6 1.3-3.1 1.9l-0.8 0.2q-0.5 0.2-0.6 0.5h0.4q-0.3 0.1-0.5 0.3-0.3 0.2-0.6 0.3-0.2 0.2-0.5 0.4-0.3 0.1-0.5 0.3v-0.2q-1.3 0.3-2.5 0.6-1.3 0.4-2.5 0.8zm24.7-0.3q-0.6 0-1-0.3-0.4-0.3-0.8-0.8-0.8-0.9-1.3-1.6-0.5-0.7-0.5-2.1v-1.7q0-0.5 0.3-1.6 0.3-1.1 0.7-2.1 0.4-1 0.8-1.3 0.5-1.7 1.2-3.3 0.6-1.6 1.7-2.9-0.5-1.4-0.7-2.8-0.2-1.5-0.2-3 0-0.4 0-0.8 0.1-0.4 0.1-0.8l0.2-0.2 0.1-0.1v-0.2q-0.1-0.1-0.1-0.2 0-0.2 0.2-0.7 0.1-0.6 0.3-1.1 0.1-0.5 0.1-0.5 0-0.2 0.3-0.2l0.2-0.1q0.1-0.1 0.3-0.2l0.2-0.1q0.5-0.7 1.5-1 1-0.3 1.8-0.3 1.7 0 2.5 1.2 0.9 1.2 1.3 2.7 0.4-0.3 0.8-0.3 0.2 0 0.3 0.1 0.9 0.2 2.1 1 1.2 0.7 1.2 1.6v0.1q0 0.3-0.6 0.8-0.6 0.5-1.4 1-0.7 0.6-1.5 1-0.7 0.5-0.9 0.6-0.4 0.3-0.8 0.4-0.3 0.1-0.4 0.3-0.2 0.1-0.4 0.2-0.3 0.2-0.6 0.5-0.2 0.2-0.5 0.5l-0.5 0.5q-0.2 0.2-0.3 0.3-0.1 0.1-0.3 0.3-0.1 0.1-0.4 0.2-0.2 0.2-0.5 0.4-0.7 0.5-0.8 0.9 0 0-0.2 0.5-0.1 0.4-0.1 0.6 0 0.6 0.2 1.5 0.1 0.9 0.5 1.7 0.2 0.4 0 1-0.2 0.5-0.6 0.2-0.5-0.5-0.8-1.2-0.4-0.8-0.4-1.1-0.1-0.1 0-0.2 0.1 0 0-0.2l-0.1-0.1q0 0 0-0.1 0 0-0.2-0.2-0.4 0.5-0.9 1.6-0.5 1-0.8 1.6l-0.3 0.8q-0.3 0.6-0.4 0.6-0.2 0-0.2-0.3 0-0.4 0.1-0.8l0.4-0.9q-0.3 0.5-0.5 1-0.2 0.5-0.2 0.7v0.1 0.1q0 0 0.1 0.1v0.2q-0.1 0-0.1 0.1-0.1 0.6-0.2 1.2-0.2 0.6-0.4 1.1-0.4 1-0.4 2.4 0 0.9 0.4 1.6 0.3 0.7 1.3 0.7 0.5 0 0.9-0.2 0.4-0.1 1.3-0.8 0.9-0.7 1.8-1.5 0.9-0.9 1.6-1.7 0.6-0.8 0.6-1.2 0.2-0.3 0.5-0.6 0.3-0.3 0.2-0.6 0.7-1.2 1.2-2.8 0.6-1.6 0.9-3.3 0.4-1.7 0.5-3 0.2-0.5 0.2-0.7 0.1-0.2 0.2-0.2v-0.1q0.2-0.1 0.2-0.3 0-0.2 0-0.3 0-0.2-0.1-0.4-0.1-0.3-0.1-0.6 0-0.2 0.2-0.6 0.1-0.4 0.5-0.4 0.4 0 0.6 0.6 0.2 0.6 0.3 1.4 0.2 0.7 0.2 1.1 0 1.3-0.3 2.9-0.3 1.6-0.7 2.9-0.4 1.1-0.9 1.9-0.5 0.8-1.1 1.8l-0.6 0.9-0.2 0.4q-0.1-0.1-0.1 0.2 0 0.2-0.1 0.2-0.1 0-0.1 0.2 0 0-0.1 0.1-0.3 0.4-0.7 0.8-0.2 0.2-0.4 0.4-0.2 0.2-0.3 0.4-0.7 0.9-1.6 2-0.9 1-2.1 1.8-1.1 0.7-2.3 0.7zm2.6-19.2v-0.1l0.1-0.5q0.2-0.7 1.3-1.7 1.1-1.1 1.7-1.7 0.6-0.5 1.1-1.1 0.5-0.5 1-0.9-0.1-0.5-0.5-1.2-0.4-0.8-0.8-1.3-0.4-0.7-0.8-0.7-0.6 0-1.2 0.5l-0.1 0.2q0 0.1-0.2 0.1l-0.3 0.2q0 0.1 0 0.1v0.1q-0.3 0.5-0.6 1.1-0.1 0.2-0.2 0.4-0.1 0.2-0.1 0.3-0.3 1-0.6 2-0.1 1-0.1 2 0 0.6 0 1.2 0.1 0.5 0.3 1zm10.9 15.2q-0.2 0-0.2-0.1-0.3-0.1-0.3-0.1l-0.2-0.1v-0.1h-0.1l-0.6-0.5 0.1-0.3q-0.7-0.5-0.9-1.3-0.1-0.9-0.1-1.6 0-0.6 0.1-1.1 0.1-0.5 0.4-0.9l-0.1-0.2 0.3-0.2v-0.1q0-0.8 0.7-2 0.7-1.3 1.6-2.6 0.9-1.3 1.6-1.9h-0.1q0.2-0.3 0.7-0.9 0.5-0.7 0.9-1.2 0.5-0.6 0.8-0.6l0.8-0.9v-0.3l0.2-0.1 0.5-0.2-0.1-0.1q0.6-0.6 1.3-1.2 0.8-0.5 1.5-0.9l0.9-0.5 0.4-0.1 0.2-0.2q0.1-0.2 0.6-0.2 0.8 0 2 0.5 1.3 0.5 1.5 1.2 0.4 0.3 0.5 0.6 0.2-0.4 0.3-0.7 0.1-0.4 0.1-0.8 0-0.6 0.4-1.3l0.1-0.2q0.4-0.9 1.2-1.7 0.4-0.3 0.7-0.8 0.3-0.4 0.5-0.8 0-0.2 0.3-0.9 0.4-0.7 0.2-0.8 1.1-1.5 1.9-3.1 0.9-1.6 1.7-3.3 0.7-1.7 1.5-3.3 0.8-1.7 1.6-3.3 0.1-0.1 0.1-0.3 0-0.2-0.1-0.3 0-0.1-0.1-0.2l0.9-1.2q0.3-0.3 0.5-0.6 0.3-0.3 0.5-0.5 0.6 0 1.2 0.1 0.7 0.1 1.2 0 1.3 0 2.4 0.6 0.5 0.2 1.2 0.6 0.7 0.4 0.7 1.2 0 0.7-0.7 1.4-0.4 0.3-0.8 0.6-0.3 0.3-0.5 0.6-0.4 0.4-0.8 0.9-0.4 0.4-1 0.5l-0.2-0.2h0.2q0.3-0.6 0.9-1.5 0.6-0.8 0.6-1.5 0-0.3-0.1-0.4l-0.1 0.1 0.1 0.1q-0.3 0.3-0.6 0.5-0.2 0.3-0.5 0.5-0.3 0.3-0.5 0.6-0.2 0.2-0.4 0.5-0.4 0.5-1.2 1.7-0.8 1.1-1.7 2.3-0.8 1-1.2 1.4l-0.1 0.2h-0.1q0.1 0.1 0.4 0.1-0.3 0.3-0.8 0.3 0.2 0.2 0.2 0.4 0 0.3-0.3 0.4-0.4 0.1-0.7 0.1 0 0.9-0.6 1.1-0.1 0.1-0.1 0.1-0.1 0-0.1-0.1h-0.2q0.2 0.1 0.3 0.3 0.2 0.1 0.2 0.2h-0.1l0.1 0.1h-0.2q-0.4 0-0.3 0.1l0.1 0.3h0.3q0.3 0 0.4 0.1h-0.2l-0.1 0.5q0.1-0.1 0.5-0.1 0.8-0.9 1.4-1.9 0.7-1 1.4-1.9 0.7-0.9 1.4-1.9 0.7-1 1.4-1.9v-0.1q0.1 0.1 0.1 0.4 0 0.4-0.5 1.4-0.5 0.8-1.3 1.8-0.7 1-1.5 2-0.6 0.9-1.1 1.4-0.1 0.2-0.3 0.6-0.2 0.3-0.4 0.5-0.2 0.2-0.4 0.5-0.3 0.3-0.4 0.6-0.3 0-0.3 0.3v0.4q0 0.3-0.3 0.4-0.6 0.2-0.9 0.8-0.2 0.5-0.4 1.1-0.1 0.6-0.6 1.1-0.2 0.2-0.6 1-0.5 0.7-0.9 1.5-0.5 0.7-0.8 0.7l0.3 0.4q-0.6 0.4-0.6 0.5 0.1 0.1 0.1 0.8 0 0.1-0.5 0.4-0.4 0.3-0.4 0.5l-0.7 0.6q-0.2 0.5-0.4 0.9-0.3 0.4-0.4 0.7-0.5 0.5 0 1.5-0.4 0.4-0.2 0.6 0.1 0.2-0.2 0.6l-0.7 1.2 0.3 0.4-0.3 0.1v0.6q0 0 0 0 0 0.3 0.1 0.3l-0.2 0.4 0.1 0.2-0.3 1.1q-0.1 0.5 0 1.2-0.2 0.1-0.2 0.6 0 0.2 0.1 0.2v0.6q0.1 0 0.1 0.2l-0.1 0.1 0.1 0.1q0.2-0.1 0.3-0.2 0-0.2 0.3-0.1l2.1-1.5h0.4q0.4-0.5 0.8-1.2 0.5-0.8 0.9-0.6 0.1 0.6-0.8 1.6-0.8 0.9-1.8 1.8-1 0.8-1.3 1v0.5q0 0.1-0.2 0.1-0.1 0-0.1 0.1-0.2-0.1-0.3-0.1-0.1 0.1-0.3 0.1l-0.3 0.7-0.1-0.1q-0.1 0.1-0.3 0.1-0.1 0.1-0.2 0.1-0.4 0.2-0.7 0.2-0.4 0-0.7-0.9-0.3-0.9-0.6-2-0.2-1-0.2-1.2l0.1-0.1q-0.1-0.3 0-0.4 0.1-0.2-0.1-0.3l0.2-0.3h0.1v-0.5q0-0.3-0.3-0.2v-0.1l0.1-0.3v-0.1l0.1-0.3v-0.1q0-0.1 0-0.1 0.1 0 0.2-0.1h-0.1l-0.3-0.2q0-0.2 0-0.6 0-0.5 0.2-0.5 0-0.6 0.2-1.1 0.2-0.5-0.3-0.3l-0.4 0.2q0 0.2-0.2 0.2-0.1 0.2-0.5 0.7-0.2 0.4-0.6 0.4 0 0.1 0.1 0.2 0 0.3-0.7 0.9-0.7 0.5-0.6 1.1l-1 0.8 0.1 0.1h-0.1v0.2q-0.6 0.8-1.6 0.8-0.4 0-0.6 0.5-0.1 0.5-0.5 0.5l0.2 0.1q-0.4 0.4-1 0.9-0.6 0.6-0.7 1.2l-0.1-0.1 0.1 0.2-0.3 0.2q0 0.4-0.4 0.5-0.4 0.2-0.8 0.2-0.4 0.5-1.1 1-0.7 0.4-1.3 0.4zm19.5-23.9h0.1q0.6 0 0.6-0.1 0-0.3 0.1-0.5h0.4q0.3 0 0.3-0.1 0-0.1 0-0.3-0.3 0.1-0.5 0.1-0.2 0.1-0.4 0.1-0.6 0.1-0.6 0.7zm-20.3 22.2l0.2 0.5h0.7q0.1 0 0.3-0.1 0.2 0 0.4-0.2 0.3-0.1 0.7-0.1 0-0.1-0.1-0.1 0-0.2 0.1-0.2 0 0.1 0 0h0.1q0.2-0.2 0.5-0.4 0.3-0.2 0.6-0.4 0.5-0.3 0.9-0.8l0.2 0.1v-0.3q0.4 0 0.4-0.3 0-0.4 0.5-0.4 0.4-0.3 0.8-0.7 0.4-0.5 0.8-1 0.5-0.6 0.9-1 0.4-0.5 0.7-0.9l0.1 0.2v-0.1q0.3-0.3 0.4-0.5 0.1-0.1 0.1-0.2 0.2-0.2 0.3-0.3l0.1 0.1q0.4 0 0.4-0.4l-0.1-0.1 0.4-0.3v-0.2q0.1 0 0.1 0.1 0 0 0.2 0.1-0.1-0.2 0-0.4 0.2-0.1 0.4-0.1v-0.1l0.5-0.8q0.1-0.1 0.3-0.3 0.2-0.1 0.4-0.5 0.1-0.4 0.2-0.7 0.2-0.2 0.2-0.3 0.5 0 0.6-0.8 0.1-0.8 0.7-1.3 0.4 0 0.6-0.2 0.2-0.2 0.3-0.6 0.3-0.3 0.3-0.7-0.1-0.3-0.1-0.5 0-0.2 0.2-0.2 0.1-0.2 0.1-0.3 0-0.1-0.4-0.3-0.4-0.2-0.5-0.3 0 0.1-0.1 0.1 0 0 0 0-0.1-0.1-0.3-0.1-1.2 0-2.1 0.8-0.8 0.7-1.7 1.5-0.8 0.8-1.8 0.8-0.1 0.4-0.5 0.7-0.3 0.3-0.5 0.4v0.3l-0.5 0.2v0.2q0.1 0.3-0.2 0.2h-0.4v0.3q-0.1 0.1-0.1 0.2-0.4 0.3-1 0.8-0.6 0.4-0.9 1l-0.1-0.1-0.1 0.2 0.1 0.1-0.3 0.3-0.2-0.1 0.1 0.4q-0.3 0.2-0.9 0.9-0.7 0.6-0.6 1.1h-0.2l-0.2 0.6h-0.2l-0.2 0.3h-0.2l0.1 0.1v0.4q-0.1 0-0.1 0.2l0.1 0.1-0.6 0.8 0.3 0.1v0.1q0 0.1-0.3 0.1v0.1q0 0.2-0.2 0.4-0.1 0.1-0.1 0.1-0.1 0.1-0.2 0.8-0.1 0.6-0.2 1.2-0.1 0.7-0.2 0.7zm24.9 2.7h-1.2q-0.7 0-1.3-0.2-0.9-0.3-1.8-1.9l0.4-0.1-0.4-0.3-0.4-1.4h-0.1q0-0.2 0-0.5v-0.4q0-0.2 0.2-0.8 0.3-0.6 0.6-1.1l-0.6 0.1v-0.3q0 0 0.2-0.2 0-0.2 0.2-0.3 0.1 0.1 0.1 0.2l0.1-0.1v-0.3q0-0.2 0-0.4 0.1-0.3 0.2-0.5 0-0.3 0.1-0.4l0.1-0.2h0.1v-0.3l0.3-0.4q0.3-0.3 0.4-0.3v-0.1q-0.1 0.1-0.2 0.1-0.2 0-0.2-0.2 0-0.1 0-0.1v-0.3q0.1-0.1 0.1-0.3 0-0.2-0.1-0.4l0.4-0.4h0.2-0.1 0.1l0.1-0.1 0.2-0.6 0.3 0.5 0.1-1q0.1-0.3 0.1-0.6 0.1-0.3 0.2-0.5l0.6-0.1v-0.5h-0.2v-0.2l0.3-0.3h0.1v-0.3l0.5-0.4v-0.2q0.4-0.2 0.6-0.8 0.2-0.4 0.8-0.5h-0.3l0.1-0.1-0.3 0.2v-0.4h0.1l0.1-0.2h0.1l0.1-0.2v-0.3q0.3-0.2 0.7-0.5 0.4-0.4 0.4-0.8l0.2-0.1v-0.3l0.2 0.1 0.8-0.6v-0.3l0.4-0.3 0.2-0.3q0-0.2 0.2-0.2 0.1 0 0.2 0.1 0.3 0.1 0.4 0.2h0.3q0.9 0 1.8 0.6 1 0.7 1.6 1.6 0.6 0.9 0.6 1.8 0 0.3 0.2 0.6 0 0.1 0 0.3 0.1 0.2 0.1 0.4v0.2q0 0.3-0.1 0.3-0.9 2.3-3 4.4-2 2.1-4.1 3.3-0.5 0.2-1.1 0.5-0.5 0.2-1.1 0.2-0.2 0-0.2-0.1l-0.4-0.1q0.1 0 0.5-0.3 0.1 0 0.2-0.1 0.1 0 0.2-0.1l0.4-0.1q0.1 0 0.1-0.1v-0.1q0-0.2 0.3-0.2 0.3-0.2 0.5-0.3l0.6-0.1q0.4-0.2 0.6-0.2 0.3-0.1 0.3-0.4 0.2-0.1 0.5-0.7 0.4-0.7 0.6-0.9l0.5-0.1 0.6-0.8-0.1-0.3 0.4-0.2v-0.2h0.1q0.7-0.7 1-1.2 0.4-0.6 0.7-1.5 0-0.1 0.2-0.1v-0.1q0.3-0.6 0.3-1.3 0-1.3-1.3-1.3-0.1 0-0.3-0.1-0.2 0-0.2 0.1h0.3l-0.3 0.2q-0.3 0.2-0.6 0.4-0.2 0.2-0.2 0.6h-0.2q0.1 0 0.1 0.2-0.4 0-0.5 0.3l0.3 0.1q-0.2 0.2-0.3 0.3-0.2 0-0.4 0.1-0.1 0.1-0.3 0.2-0.2 0.1-0.3 0.2-0.6 0.4-0.6 0.8 0 0.1 0 0.2 0.1 0 0.1 0.1 0.2 0 0.3 0.1h-0.5q0 0 0.1 0 0-0.1 0.1-0.1-0.2 0-0.4 0.1-0.1 0 0 0.1l0.1 0.1q0 0-0.1 0 0 0 0 0 0 0.1 0 0.1h-0.1q-0.3 0.3-0.5 0.6-0.2 0.3-0.3 0.6-0.2 0.5-0.6 1l0.4 0.3h-0.4l-0.2 0.2v0.3l-0.4 0.3h0.1l-0.5 1-0.2 0.1v0.4l-0.6 0.7v0.2h-0.1v0.4q-0.4 0.4-0.5 1 0 0.6-0.4 1.2h0.3l-0.5 0.3v0.1q0 0.1 0 0.2 0 0.2 0 0.4 0 0.2 0.1 0.4 0.1 0.1 0.1 0.3 0 0.2 0 0.4 0 0.5 0.4 1.2 0.4 0.7 0.7 0.7 1.1 0 2.2-0.6 1-0.6 2.1-0.7l1.2-0.9q0.9-0.8 1.6-1.8 0.8-1 1.7-1.8l-0.1-0.1q0.2-0.2 0.5-0.7 0.4-0.4 0.4-0.7 0.1-0.1 0.1-0.2 0-0.2 0-0.2 0.2-0.3 0.4-0.3 0.2 0 0.2 0.3 0 0.2 0 0.2 0 0.6-0.6 1.7-0.4 1-1 1.2v0.2q-0.3 0.3-0.6 0.8-0.4 0.5-1.2 1.4-0.6 0.9-1.1 0.9l-0.8 0.5v0.3q0 0.2-0.3 0.4-0.3 0.2-0.6 0.2-0.2 0.3-0.6 0.4-0.1 0.1-0.5 0.3-0.1 0.2-0.6 0.4-0.4 0.1-0.5 0.2-0.3 0.2-0.7 0.3-0.4 0-0.7 0zm45.8 5.6h-0.1q0-0.3 0.5-1.1 0.5-0.8 0.5-1 0 0-0.1 0-0.1-0.2-0.1-0.3-0.1-0.2-0.2-0.4 0-0.1-0.1-0.3 0-0.2-0.1-0.3-0.6-2.2-2-2.7-1.3-0.7-3.4-0.7h-0.1q-0.2-0.1-0.4 0-0.1 0.1-0.4 0.1-0.4 0-0.4-0.3 0-0.3-0.2-0.3-0.3 0-0.5 0.2-0.3 0.3-0.4 0.3-0.2 0-0.6-0.3-0.5-0.3-0.9-0.3-0.3 0-0.3 0.1-0.1 0-0.3 0-0.1 0 0-0.2 0.1-0.2 0-0.2-0.1 0-0.3 0.1-0.2 0.2-0.4 0.2-0.4 0-0.9-0.3-0.2-0.2-0.8-0.2h-4.2q-0.3 0-0.6 0.1-0.4 0-0.7 0-0.4 0.1-0.7 0.1-0.3 0.1-0.7 0.1-1.3 0.2-2.6 0.2-1.3 0.1-2.5 0.1-1.3 0.1-2.5 0.4-1.3 0.3-2.5 0.7-0.6 0.2-1.3 0.4l-1.4 0.1q-0.1 0.5-0.4 1-0.1 0.5-0.4 1v0.1q-0.1 0-0.5 0.7-0.4 0.7-0.6 0.8 0.1 0.1 0.1 0.2 0 0.3-0.3 0.3 0 0 0 0.1 0 0-0.3 0.4-0.4 0.3-0.7 0.6-0.4 0.2-0.6 0.2h-0.2q-0.1 0.2-0.3 0.2-0.3 0-0.6-0.3-0.1 0-0.2-0.1-0.1-0.3-0.3-0.3 0 0-0.4-0.1-0.2 0-0.2-0.3h-0.4q0 0.1-0.3 0.1-0.1-0.1-0.3-0.1-0.1 0-0.4 0 0.2-0.4 0.2-0.4-0.1 0-0.2 0 0 0-0.1 0.1 0 0-0.2 0v-0.1l-0.3-0.1h-0.2q-0.2 0-0.2 0.1h-0.3l-0.1-0.2v0.1q-0.4 0-0.4-0.3h-0.1q-0.4 0-1 0.3-0.2 0.1-0.5 0.1-0.2 0-0.4 0h-0.1q-0.1 0-0.6 0-0.5-0.1-0.5-0.3l0.1-0.1q0.2 0 0.3-0.1 0.2 0 0.4-0.1 0.4-0.1 0.5-0.5 0.6-0.3 1.1-0.6 0.5-0.3 1.1-0.7 0.1 0.1 0.3 0.1 0.2 0 0.3-0.3 0.2-0.3 0.7-0.3 0.5-0.3 1.3-0.7 0.9-0.5 1.8-0.9 0.9-0.4 1.3-0.4 0.4-0.4 0.7-0.5 0.3-0.2 0.8-0.2 0.1-0.1 0.2-0.2 0-0.1 0.1-0.2l0.1-0.5q0 0 0 0 0-0.1 0-0.1 0.2-0.3 0.3-0.7 0.3-0.4 0.5-1 0.3-0.5 0.5-0.9 0.2-0.5 0.3-0.7 0.2-0.3 0.6-0.6 0.5-0.3 0.5-0.5 0-0.3-0.1-0.4-0.1-0.1-0.1-0.3 0-0.2 0.3-0.9 0.3-0.7 0.7-1.3 0.4-0.7 0.6-0.8v-0.1q-0.1 0-0.1-0.2 0-0.2 0.3-0.4 0.1-0.1 0.2-0.1 0.2-0.1 0.2-0.1l0.5-1q0.1-0.2 0.3-0.4 0.1-0.3 0.2-0.5 0.3-0.6 0.6-1.3 0.3-0.7 1-0.9-0.1 0-0.1-0.2 0-0.1 0.1-0.2 0.1 0 0.2-0.1 0 0 0-0.1h-0.1q-1.4-0.9-2.5-2.5-1-1.6-1-3.3 0-0.5 0.1-1.2 0.2-0.8 0.5-1.5 0.3-0.6 0.8-0.6 0.3 0 0.3 0.3 0.1 0.3 0.1 0.5 0 0.2 0 0.5 0 0.3-0.1 0.5-0.1 0.5-0.1 1 0 1.3 0.9 2.7 0.9 1.4 1.9 2 0.8-1.1 1.8-2.6 0.9-1.6 1.9-3.2 1-1.6 1.8-2.6 1.3-2.2 2.8-4.2 1.5-2.1 3.2-3.9 0.1-0.2 0.7-0.8 0.5-0.6 1.1-1.2 0.7-0.7 1.2-1.2 0.6-0.5 0.8-0.5 0.3 0 0.2 0.6 0 0.6 0.2 0.6 0.3-0.2 0.3-0.6 0.1-0.5 0.2-1 0.1-0.6 0.4-0.8 0.2-0.2 0.6-0.4 0.1-0.2 0.5-0.5 0.2-0.2 0.3-0.5 0.1-0.1 0.4-0.4h0.1q0.1 0 0.1 0.2v0.2l0.1-0.1q0.3-0.3 0.4-0.8 0.1-0.5 0.5-0.7 0.1-0.1 0.4-0.2 0.2-0.1 0.2-0.2 0 0-0.1-0.2-0.2-0.1-0.2-0.3v-0.1q0-0.1 0.5-0.4 0.6-0.3 1.1-0.5 0.6-0.3 0.6-0.3 0.1 0 0.1 0.1 0 0.3-0.2 0.6-0.3 0.3-0.4 0.5l0.2-0.1q0.1 0 0.3 0 0.1 0.1 0.3 0.1 0.3 0.2 0.6 0.2h0.2q0.1 0 0.1-0.1 0-0.1-0.3-0.3-0.3-0.2-0.3-0.4 0-0.1 0.1-0.4 0.2-0.3 0.3-0.3 0.1 0 0.1 0.1-0.1 0.1 0.1 0.1 0.1 0 0.3-0.2 0.1-0.2 0.2-0.4h0.2q0.1 0 0.2 0 0-0.2-0.1-0.2-0.1 0.1-0.1-0.1 0-0.3 0.6-0.8 0.8-0.4 0.9-0.5 0.9-0.4 1.8-0.5 1-0.1 2-0.1 1.5 0 3 0.2 1.6 0.2 3 0.3 0.6 0.1 1.4 0.5 0.8 0.4 1.2 0.8 0 0 0 0.1 0 0 0.1 0 0 0.1-0.1 0.1-0.1 0.2-0.1 0.2 0 0.1 0.5 0.6 0.5 0.4 0.9 1.1 0.5 0.5 0.5 1.2 0 0.3 0.1 0.5v0.4q0 0.4-0.2 0.7-0.3 0.2-0.3 0.6 0 0.1 0 0.2v0.2q0 0.2-0.2 0.8-0.2 0.6-0.2 0.7 0 0.2-0.2 0.4l-0.2 0.3q-0.1 0.2-0.2 0.7 0 0.6-0.3 0.6-0.1 0-0.2-0.1l-0.1-0.2h-0.1q-0.3 0.5-0.3 1.3-0.1 0.4-0.2 0.8 0 0.4-0.3 0.7-2.2 3.7-5.1 6.4-2.9 2.6-6.5 5-2.7 1.9-6 3.6-3.3 1.7-6.8 2.9-3.5 1.1-6.9 1.1-1 0-2.3-0.2-1.3-0.1-2.2-0.7-2 3.1-3.9 6.4-1.9 3.2-3.2 6.6 1-0.3 1.9-0.6 1.1-0.3 2.1-0.5 1-0.2 2-0.4 1-0.3 2-0.5 0.2-0.1 0.5-0.3 0.1-0.1 0.5-0.2 0.1-0.1 0.6-0.1 0.1 0.1 0.3 0.1 0.1 0 0.3 0 0.9 0 1.6-0.4 0.8-0.3 1.7-0.3 0.2 0 0.2 0.1 0 0.2 0.4 0.2 0.4 0 0.6-0.2l0.6-0.2q0.4 0 0.8 0 0.5-0.1 1-0.1h1.7q1.8 0 4.1 0.2 2.4 0.1 4.6 0.6 2.2 0.4 3.7 1.3 1.8 0.9 1.8 2.9 0 0.4 0 0.8 0 0.3-0.1 0.7-0.1 0.4-0.1 0.7 0 0.4 0 0.8 0 0.3 0 0.5 0.1 0.1 0.1 0.4 0 0.2-0.5 0.9-0.4 0.5-1 1.1-0.5 0.5-0.7 0.5zm-18.6-21.9q4.8 0 9-1.6 0.1 0 0.9-0.4 0.8-0.4 1.7-0.9 1-0.5 1.8-0.9 0.8-0.4 0.8-0.4 0.2 0 0.2 0.1-0.2 0.1 0 0.1 0.4 0 0.6-0.5 0.3-0.4 0.6-0.6 0.2-0.2 0.6-0.4 0.4-0.2 0.7-0.2 0 0.1-0.1 0.2-0.2 0.1-0.2 0.2h0.1q0.1 0 0.7-0.4 0.7-0.5 0.7-0.6v-0.1q0 0 0-0.1 0-0.4 0.5-0.4 0.5-0.1 0.7-0.2 3-2.5 5.4-5.6 2.4-3.1 4.4-6.5 0.1-0.1 0.2-0.3 0.3-0.2 0.5-0.4l0.5-0.4q0-0.2-0.1-0.1-0.2 0-0.2-0.2 0-0.3 0.3-0.6 0.2-0.3 0.3-0.5 0.3-0.8 0.6-1.9 0.3-1.2 0.3-2 0-1.4-0.6-2.2-0.5-0.9-2.1-0.9-1.6 0-3.5 0.8-1.8 0.6-3.2 1.5-0.2 0.1-0.7 0.5-0.4 0.4-0.9 0.8-0.4 0.4-0.6 0.4-0.1 0-0.1-0.2v-0.1q-0.1 0-0.5 0.4-0.2 0.2-0.3 0.3-0.1 0.1-0.1 0.2l-0.9 0.7q-0.2 0.2-0.4 0.4-0.3 0.1-0.5 0.3-0.5 0.4-1 1-0.3 0.3-0.5 0.5-0.3 0.2-0.6 0.4l-0.4 0.2q-0.2 0.1-0.3 0.2-0.1 0.1-0.1 0.2 0 0.2-0.1 0.3-0.3 0.2-0.5 0.4-0.3 0.3-0.7 0.5-0.4 0.2-0.6 0.5-0.3 0.2-0.6 0.4-2.4 2.3-5.4 5.3-2.9 3-5.7 6.2-2.7 3.2-4.6 6.1 0.3 0.2 1.1 0.3 0.8 0.1 1.6 0.2 0.9 0 1.3 0zm-17.6 20.2q0.6 0 1-0.7 0.4-0.7 0.7-1.6 0.3-0.8 0.5-1.3-0.4 0-1.3 0.3-0.9 0.1-1.9 0.5-1.1 0.3-1.8 0.7-0.8 0.4-0.8 0.8 0 0.2 0.8 0.6 0.8 0.3 1.7 0.5 0.9 0.2 1.1 0.2zm59.9-2.5l-1.7 0.2q-0.5-0.6-1.2-1-0.5-0.4-1-0.8-0.4-0.6-0.4-1.4h0.1l-0.1-0.9-0.2 0.2-0.1 0.2q0-0.3 0.1-0.4 0-0.2 0.1-0.4 0.1-0.3 0.1-0.5 0-0.3 0-0.6 0-0.7 0.1-1.4 0.1-0.8 0.3-1.5 0.2-0.6 0.3-1.3 0.2-0.8 0.3-1.6h0.1l0.6-1.4v-0.3q-0.1 0.2-0.2 0.3-0.1 0.1-0.2 0.2-0.6 0.9-1.5 2.2-0.9 1.3-1.8 2.4-0.9 1.1-1.7 1.5-0.4 0.3-0.6 0.5-0.2 0.1-0.4 0.7-0.6 0.1-1.2 0.7-0.5 0.6-1 1.2-0.5 0.6-1.1 0.6l-0.1 0.3q-0.3 0.4-0.9 0.5-0.6 0.2-1 0.2-1.3-0.4-2.5-1.2-1.2-0.8-1.2-2.3 0-0.5 0.2-0.9h0.1v-0.3q-0.2-0.2-0.1-0.5 0.1-0.3 0.2-0.3v0.1q0.1-0.2 0.1-0.6 0.1-0.4 0.1-0.5l0.1-0.1q0-0.4 0.4-0.9 0.4-0.4 0.8-0.8 0.4-0.4 0.4-0.6 0 0 0-0.1 0-0.3 0-0.5-0.2-0.2-0.1-0.4v-0.2h0.2l0.2-0.3v-0.1q-0.2-0.1-0.2-0.2v-0.1q0-0.2 0.1-0.3l0.2-0.2q0-0.1 0.1-0.1v-0.2l0.3-0.2q0.2-0.3 0.3-0.3 0.5-0.7 0.7-1.2h0.3v0.1q0-0.1-0.1-0.2 0 0 0-0.1 0-0.4 0.7-1.3 0.8-0.9 1.9-1.8 1.1-1.1 2.1-1.9 1.1-0.9 1.6-1.4v-0.3h0.2q0.2-0.1 0.4-0.4 0.3-0.2 0.6-0.4 0.5-0.6 0.9-0.6l0.2-0.3 0.3-0.1q0.1 0 0.1-0.1 0.1-0.1 0.1-0.1 0.1-0.1 0.2-0.1 0.1 0 0.1 0l0.1-0.1h0.1v-0.1q0 0 0 0 0-0.1 0-0.1l1.1-0.4h0.1l0.8-0.3 0.2-0.2h0.7l0.4-0.3 0.2-0.1v0.1-0.1l0.1 0.1q0.5-0.2 1.1-0.2 0.5 0 1.3 0.2 0.9 0.2 1.6 0.6 0.8 0.3 0.9 0.9v0.1l-1.2 0.7q0.1-0.3 0.2-0.3v-0.1q0-0.1-0.3-0.1h-0.3q-1.2 0-2.2 0.7-1 0.7-1.9 1.4-0.5 0.1-1.1 0.6-0.6 0.6-1 0.9-2.3 1.7-4.1 3.4-1.7 1.7-3.3 4-0.3 0.5-0.8 1.2-0.4 0.7-0.8 1-0.3 0.5-0.6 1-0.2 0.5-0.5 1.1-0.2 0.6-0.5 1.1-0.3 0.5-0.5 0.9 0 0.7-0.2 1.4-0.1 0.3-0.1 0.5-0.1 0.2-0.1 0.4 0 0.1 0 0.2l0.2 0.6q0.7-0.3 1.6-0.8 1-0.4 1-1 0.3-0.1 0.3-0.1h0.2v-0.1q0.1-0.1 0.1-0.1h0.2l0.2-0.3v-0.3l0.2 0.3 0.7-0.8q0-0.3 0.4-0.3 1-0.8 1.8-1.9 0.4-0.6 0.8-1.1 0.3-0.5 0.8-0.9h0.1l0.8-1-0.1-0.2 0.8-1h0.1q0.1-0.4 0.4-0.7l0.1 0.1 0.5-0.6-0.1-0.1q0.3-0.4 0.7-0.9 0.3-0.4 0.6-0.8 0.4-0.5 0.7-0.9 0.3-0.5 0.6-1 0-0.4 0.3-0.7 0.3-0.3 0.7-0.3l0.4 0.1q0.2-0.4 0.2-1.3 0.3 0.1 0.5-0.1 0 0 0.3-0.1v0.1l0.5 0.2q0.2-0.1 0.3-0.1 0.5 0 1 0.2 0.4 0.3 0.8 0.6 0 0.1 0 0 0 0 0.1 0h0.3q0.7 0 0.7 0.6v0.2q-0.3 0.4-0.6 0.8-0.2 0.4-0.4 0.8-0.5 0.8-1.3 1.4v0.1l-0.9 1.3 0.1 0.2-1.9 2.4-0.2 0.1q-0.1 0.4-0.3 0.8-0.1 0.3-0.3 0.7l-0.5 0.2q0.1 0.1 0.1 0.3 0 0.2 0.1 0.3-0.5 0.8-0.8 1.7-0.3 0.8-0.2 1.8-0.1 0.1-0.2 0.3 0 0.2 0 0.4 0 0.3 0 0.6 0.1 0.2 0.1 0.5 0.1 0.2 0.1 0.5 0.1 0.3 0.1 0.6l0.7-0.3h0.1l0.1-0.1 0.1-0.2q0-0.1 0.2-0.4l0.1 0.5 0.5-0.2v0.2h0.1q0.2 0 0.3-0.4 0.1-0.1 0.3-0.2 0.2-0.2 0.4-0.2v-0.1-0.1q0-0.3 0.4-0.5 0.3 0 0.4-0.1 0.2-0.1 0.3-0.1l1.5-1.5h0.1q0.1-0.2 0.4-0.5 0.4-0.3 0.7-0.4v-0.4l0.4-0.1h0.1l1.3-1.8q0 0 0.1 0 0.1 0 0.2 0.1 0 0 0.1-0.2 0.2-0.2 0.2-0.3 0.1-0.1 0.1-0.2 0.1-0.1 0.4-0.1 0.1-0.1 0.2-0.1 0.2-0.1 0.2-0.2-0.6 1.2-1.1 2.2-0.5 1-0.9 1.9-0.5 1-1.1 1.9-0.5 0.9-1.4 1.7l-0.2-0.2 0.4-0.5-0.1-0.3h-0.1v0.2l-0.4 0.4q0 0.8-0.5 1.1h-0.2-0.1v0.2l-0.4 0.4h-0.2l-0.6 1v-0.2h-0.2q-0.1 0.1-0.2 0.2-0.1 0-0.2 0.1-0.4 0.1-0.4 0.3zm3.9-4.4l0.1 0.1q0-0.1 0.1-0.2l0.1-0.2-0.2 0.1-0.1 0.3zm8.2 4.9q-1.1 0-2.2-0.5-1.2-0.5-1.8-1.6-0.7-1.3-1.2-2.4-0.5-1.2-0.5-2.7 0-0.9 0.1-1.8 0.2-0.8 0.3-1.7 0.1-0.4 0.5-1.1 0.4-0.8 0.7-1.2 0.2-0.3 0.2-0.6h0.5q-0.2 0.9-0.4 1.7-0.2 0.7-0.5 1.5-0.2 0.8-0.4 1.6-0.1 0.7-0.1 1.5 0 0.4 0 0.9 0.1 0.5 0.3 0.8 0.3 0.5 0.5 0.9 0.4 0.5 0.7 0.9 0.6 0.9 1.7 0.9 0.2 0 0.7 0 0.4-0.1 0.5-0.4h0.4q0.4 0 0.8-0.2 0.5-0.2 0.9-0.5 3.2-1.8 5.7-4.5 2.4-2.6 4.3-5.8 1.9-3.3 3.4-6.6 0.3-0.6 0.5-1.2 0.3-0.7 0.6-1.3 0.5-1.2 0.5-2.6 0-0.2 0-0.6-0.1-0.4-0.3-0.5-0.1-0.1-0.3-0.1-0.5 0-1.2 0.5-0.6 0.5-1.3 1.2-0.3 0.3-1.1 1-0.7 0.7-1.2 0.8v0.1q-0.5 0.9-1.2 1.6-0.4 0.4-0.8 0.8-0.4 0.3-0.7 0.7-1.6 2-3.4 4.6-1.8 2.7-2.8 4.9-0.4 0.7-0.5 1.5-0.2 0.8-1 1.3l-0.5 0.1-1.9-1.5-0.4-1.2 0.2-0.1q0-0.2 0-0.6v-0.7q0-1.4 0.5-2.7 0.5-1.2 1.2-2.6 0.9-2.2 2-4.4 1.2-2.2 2.6-4.2 0.3-0.4 0.6-0.7 0.2-0.3 0.4-0.6 0.1-0.3 0.2-0.4 0.2-0.3 0.2-0.4 0.1-0.3 0.5-0.7 0.1-0.2 0.3-0.4 0.2-0.2 0.4-0.4 0.2-0.2 0.2-0.8 1.6-1.8 3.3-3.9 1.6-2 3.1-3.9 0.6-0.8 1.2-1.4 0.5-0.7 1.2-1.2 0.6-0.6 1.2-1.2 0.5-0.7 1-1.4 1.4-1.7 3-3.3 1.6-1.6 3-3.2 0.7 0.1 1.6 0.5 0.9 0.4 1.6 1 0.8 0.6 0.8 1.3 0 0.7-0.9 1.4-0.8 0.6-1.8 1.3-0.4 0.3-0.9 0.5-0.4 0.3-0.8 0.6-0.8 0.6-0.8 1.1h-0.6v-0.1l-0.2 0.1 0.3 0.3q-1.1 0.7-2 1.8-0.9 1-1.5 2-0.3 0.2-0.4 0.4 0 0.1-0.1 0.3 0 0.1-0.1 0.2-0.1 0.2-0.4 0.5-0.2 0.1-0.7 0.2 0.3-0.6 0.4-0.8 0.1 0 0.2-0.2l-0.9 0.9q-0.5 0.6-1.2 1.3-0.5 0.6-1.1 1.3-0.6 0.6-1.2 1.2-0.5 0.6-1 1.1-0.5 0.5-0.8 0.8-0.4 0.3-0.5 0.4-0.1 0.7-0.7 1.1-0.2 0.2-0.5 0.5-0.2 0.3-0.4 0.5-1 1.2-1.8 2.3-0.5 0.6-1 1.2-0.5 0.6-0.9 1.3-0.1-0.1-0.1-0.1-0.1 0-0.2 0-0.1 0-0.2-0.1-0.6 0.6-0.8 1.4-0.3 0.9-1.1 1 0 0.4-0.3 1l0.4-0.2q-0.1 0.6-0.5 1-0.2 0.5-0.7 0.6 0 0.4-0.1 0.7l-0.2 0.4-0.3 0.8-0.1 0.5-0.2 0.6q-0.2 0.6-0.5 1.3-0.2 0.7-0.4 1.4l-0.2 0.7q-0.1 0.5-0.2 0.8-0.1 0.3-0.3 0.6l0.2 0.6 0.1-0.4q0.1-0.3 0.1-0.4 0.2-0.1 0.2-0.3 0.7-1.2 1.7-2.8 0.9-1.7 2-3.5 1-1.8 2-3.1 1.6-2.3 3.5-4.2 2-2 4.3-3.1 0 0 0.1 0 0 0 0-0.1 0 0 0.1-0.1l0.3 0.1q0.3-0.3 0.8-0.3 0.5 0 0.8 0 1.6 0 2.2 1.4 0.6 1.3 0.6 2.7 0 1.1-0.2 2.6-0.2 1.4-0.6 2.3 0 0.3-0.2 0.5-0.1 0.2-0.1 0.6-0.4 0.3-0.6 0.8-0.3 0.6-0.3 1.1-0.1 0-0.3 0.2l-0.1 0.4q-0.1 0.3-0.2 0.5-0.1 0.2-0.6 0.2 0 0.5-0.3 1.1-0.1 0.6-0.6 0.4v0.1 0.3l-0.3 0.6-0.6 0.1q-0.3 0.3-0.7 1-0.4 0.5-0.5 0.8 0.2 0.2 0.2 0.5 0 0.6-0.6 1.2-0.6 0.5-0.8 1-0.3 0.4-0.3 0.7l-0.5 0.1q-0.2 0.4-0.6 0.4h-0.1q-0.6 1.4-1 1.7l-0.6 0.4q-0.5 0.3-0.8 0.7-0.3 0.3-0.6 0.8-0.1 0.3-0.3 0.5-0.1 0.2-0.3 0.4-0.6 0.8-1.8 1.4-1.2 0.6-2.5 1-1.2 0.4-2.3 0.4zm9.5-29.1l-0.3 0.5 0.3-0.4zm-1.7 2.1l0.1 0.1 0.1-0.1v-0.1-0.1l0.1-0.1-0.1-0.1-0.2 0.4zm-1 1.6v0.1-0.1l0.1 0.1v-0.1q0 0 0 0 0-0.1 0.1-0.1l0.1-0.2q0.1 0 0.1-0.1h-0.2v-0.1zm-5.9 9.1h0.1l0.1-0.5v0.1q-0.1 0.4-0.2 0.4zm14.9-0.2l0.2 0.1 0.1-0.3h0.1-0.1-0.1zm-15.2 1.1l-0.2-0.1-0.2 1.1h0.1q0-0.1 0.1-0.5 0.1-0.4 0.2-0.5zm-0.4 1l0.1 0.2v-0.1z"/>
</svg>